<?xml version="1.0" encoding="UTF-8" standalone="no"?>
<!-- Created with Inkscape (http://www.inkscape.org/) -->

<svg
   width="7in"
   height="9.4952755in"
   viewBox="0 0 177.8 241.17999"
   version="1.1"
   id="svg5"
   inkscape:version="1.1.2 (0a00cf5339, 2022-02-04)"
   sodipodi:docname="uk_annotated.svg"
   inkscape:export-filename="/home/aaron/bitmap.png"
   inkscape:export-xdpi="256.02206"
   inkscape:export-ydpi="256.02206"
   xmlns:inkscape="http://www.inkscape.org/namespaces/inkscape"
   xmlns:sodipodi="http://sodipodi.sourceforge.net/DTD/sodipodi-0.dtd"
   xmlns="http://www.w3.org/2000/svg"
   xmlns:svg="http://www.w3.org/2000/svg">
  <sodipodi:namedview
     id="namedview7"
     pagecolor="#ffffff"
     bordercolor="#666666"
     borderopacity="1.0"
     inkscape:pageshadow="2"
     inkscape:pageopacity="0.0"
     inkscape:pagecheckerboard="0"
     inkscape:document-units="mm"
     showgrid="false"
     fit-margin-top="0"
     fit-margin-left="0"
     fit-margin-right="0"
     fit-margin-bottom="0"
     inkscape:zoom="1.3594416"
     inkscape:cx="394.27952"
     inkscape:cy="727.50457"
     inkscape:window-width="1920"
     inkscape:window-height="935"
     inkscape:window-x="0"
     inkscape:window-y="32"
     inkscape:window-maximized="1"
     inkscape:current-layer="layer2"
     units="in"
     width="7.49567in"
     lock-margins="true" />
  <defs
     id="defs2">
    <marker
       style="overflow:visible"
       id="Arrow1Lend"
       refX="0"
       refY="0"
       orient="auto"
       inkscape:stockid="Arrow1Lend"
       inkscape:isstock="true">
      <path
         transform="matrix(-0.8,0,0,-0.8,-10,0)"
         style="fill:context-stroke;fill-rule:evenodd;stroke:context-stroke;stroke-width:1pt"
         d="M 0,0 5,-5 -12.5,0 5,5 Z"
         id="path55955" />
    </marker>
    <rect
       x="6.915904"
       y="6.6750221"
       width="13.403281"
       height="76.923843"
       id="rect3400" />
    <style
       type="text/css"
       id="style990">
   <![CDATA[
    .str3 {stroke:black;stroke-width:10;stroke-opacity:0.501961}
    .str5 {stroke:black;stroke-width:50}
    .str2 {stroke:#003399;stroke-width:20}
    .str7 {stroke:#434242;stroke-width:10}
    .str4 {stroke:black;stroke-width:10}
    .str0 {stroke:#000066;stroke-width:10}
    .str1 {stroke:#003399;stroke-width:10}
    .str8 {stroke:#2B2A29;stroke-width:7.62}
    .str6 {stroke:black;stroke-width:7.62}
    .fil2 {fill:none}
    .fil0 {fill:#FEFEFE}
    .fil9 {fill:#D9DADA}
    .fil1 {fill:white}
    .fil6 {fill:#FEFEFE;fill-rule:nonzero}
    .fil5 {fill:#D9DADA;fill-rule:nonzero}
    .fil8 {fill:#434242;fill-rule:nonzero}
    .fil7 {fill:#2B2A29;fill-rule:nonzero}
    .fil4 {fill:black;fill-rule:nonzero}
    .fil3 {fill:#FEFEFE;fill-rule:nonzero;fill-opacity:0.501961}
   ]]>
  </style>
  </defs>
  <g
     inkscape:label="Base map"
     inkscape:groupmode="layer"
     id="layer1"
     transform="translate(-7.1763641,-14.686059)">
    <g
       style="clip-rule:evenodd;fill-rule:evenodd;image-rendering:optimizeQuality;shape-rendering:geometricPrecision;text-rendering:geometricPrecision"
       id="g1196"
       transform="matrix(0.01,0,0,0.01,-2.5736359,4.9360588)">
      <g
         id="Plan_x0020_1"
         inkscape:label="Plan 1"
         inkscape:groupmode="layer">
  <metadata
   id="CorelCorpID_0Corel-Layer" />

  <rect
   class="fil0"
   x="1000"
   y="1000"
   width="18989"
   height="24068"
   id="rect995" />

  <path
   class="fil1 str0"
   d="m 12884,23462 c 14,-25 42,-60 47,-77 97,0 181,23 276,41 47,9 92,-2 137,15 38,14 62,38 106,38 7,21 12,44 34,39 9,-45 86,-27 117,-30 24,-3 -17,-69 11,-74 67,-30 26,-22 19,-63 -3,-17 15,-44 -10,-38 -23,5 -159,-58 -159,-86 27,0 52,12 81,7 28,-5 45,-13 71,-5 5,21 -6,28 -8,48 -1,9 23,26 24,23 28,-77 104,-125 189,-108 35,7 76,29 95,6 40,-47 83,-40 141,-35 64,-12 82,33 121,46 0,-42 176,-126 213,-135 61,-15 88,-26 135,-68 83,-75 -146,-177 -168,-243 29,0 124,84 151,102 39,27 72,63 112,90 25,17 66,30 86,50 28,28 64,88 101,51 44,-44 30,8 99,-10 83,21 172,8 254,35 48,16 115,118 145,118 1,2 2,1 5,1 0,-149 222,-178 326,-199 157,-31 281,18 440,-62 137,0 267,31 387,90 32,16 80,4 111,23 114,72 203,136 311,28 161,-161 253,-152 462,-194 l 29,-10 c 72,-41 109,-137 185,-163 43,-15 134,12 182,15 43,2 82,30 129,30 0,-39 -11,-88 -15,-130 36,-95 23,-176 137,-219 100,-38 194,-81 292,-101 236,-49 236,-296 154,-476 -23,-51 51,-40 81,-71 162,-162 -191,-118 -260,-98 -112,30 -237,3 -336,66 -27,17 -209,40 -131,-12 108,-72 -269,-286 -276,-162 -9,151 -207,60 -202,55 15,-14 41,-46 58,-51 29,-8 170,-16 122,-80 -45,-60 -152,-30 -221,-43 -145,-28 -126,71 -230,77 -54,3 -174,-2 -218,-35 91,0 244,58 276,-46 21,-69 32,-59 109,-59 92,0 184,-77 244,-65 48,10 108,31 158,18 98,-24 209,-196 226,-289 0,-56 15,-138 2,-193 -11,-46 -104,33 -123,39 -53,18 -298,6 -123,-55 73,-25 83,-1 146,-65 29,-29 76,-4 111,-29 21,-15 74,-60 85,-48 95,111 223,1 310,-69 30,-25 127,-149 45,-121 -20,7 -65,55 -81,24 -13,-24 11,-69 27,-85 93,-93 22,-91 -69,-91 -19,0 -146,-9 -120,-16 29,-7 89,-29 114,-21 168,52 134,-121 34,-121 105,26 81,50 119,119 52,94 133,-22 192,-52 31,-42 38,-121 81,-154 43,-32 100,-52 147,-82 25,-16 72,-256 72,-294 0,-54 3,-158 27,-205 l 130,-257 c 27,-99 35,-238 16,-339 -22,-115 20,-198 -44,-306 -17,-30 -12,-55 -19,-88 -11,-46 -27,-65 -45,-104 -85,-129 -248,-239 -366,-345 -129,-116 -312,-78 -465,-139 -91,-36 -244,13 -315,-39 -77,-26 -135,-24 -218,-12 -75,11 -156,-13 -232,0 -141,23 -163,177 -182,295 -7,40 -93,64 -109,130 -37,0 -197,-65 -224,-91 -101,-101 -104,-121 -247,-157 0,-28 16,-69 38,-84 63,-63 103,-147 169,-213 67,-67 136,-129 218,-179 102,-63 -54,-415 -57,-502 -42,-85 -103,-187 -126,-280 -22,-87 -104,-185 -184,-224 -75,-38 -97,-69 -153,-126 -38,-39 -94,-38 -134,-71 -18,-2 -121,-90 -135,-107 -36,-44 -43,-84 -69,-129 -65,-113 -150,-12 -253,-29 -53,12 -96,40 -145,54 -40,11 -57,-14 -75,-41 -52,-79 -90,-15 -161,-15 3,-13 65,-48 78,-54 25,-11 80,-7 101,12 18,17 42,27 66,26 33,-2 62,-19 97,-23 132,8 215,-123 326,16 55,68 153,230 254,207 79,-18 118,-42 196,-10 121,50 39,85 39,158 7,-23 54,-32 57,-83 3,-53 -14,-80 -33,-127 -46,-111 -141,-208 -201,-310 -43,-72 -135,-177 -157,-253 -78,-155 -220,-384 -60,-523 22,-19 120,-16 129,-34 16,-32 -109,-77 -129,-89 -109,-68 -148,-42 -164,-185 0,-3 -100,-56 -119,-72 -35,-18 -68,-154 -81,-191 -31,-87 -47,-144 -120,-204 -59,-48 -28,-51 -28,-107 0,-8 -52,-35 -61,-41 -58,-42 -134,-65 -181,-118 -108,-136 -357,-158 -512,-245 -27,-15 -142,-72 -167,-72 -8,-31 -109,-127 -43,-144 0,-3 -3,-9 -6,-10 -6,-30 -129,-101 -151,-143 -25,-46 -60,-145 -57,-200 -25,-34 -47,-136 -47,-180 0,-32 25,-136 4,-155 -87,-77 -114,-177 -157,-283 l -75,-186 c -18,-44 22,-67 13,-97 -6,-20 -19,-39 -16,-60 -46,-62 -75,-187 -39,-260 19,-38 -142,-110 -61,-213 35,-44 -4,-139 0,-193 4,-50 -35,-41 -35,-78 0,-41 -32,-63 -32,-101 0,-59 -19,-66 -41,-115 -29,-59 -58,-62 -111,-90 -10,-5 -81,-88 -81,-94 0,-21 51,-36 9,-52 -116,-44 -223,-82 -287,-204 -33,-63 -96,-154 -117,-222 0,-93 -75,-74 -97,-154 -5,-20 -148,-56 -174,-50 -70,17 -142,-4 -187,-61 -60,-75 -108,-78 -191,-108 -120,-43 -102,-164 -208,-171 l -186,-11 c -79,-5 -63,68 -126,100 -67,48 20,118 -111,127 -15,1 -52,45 -68,56 -88,61 -201,-23 -252,-88 -11,-13 -145,26 -195,11 -21,-7 -66,-53 -73,-50 -106,53 -211,-20 -332,-35 -83,-11 -122,-54 -192,-72 51,0 105,-12 153,-12 69,0 100,43 165,46 34,2 89,19 116,37 62,40 45,-24 75,-37 40,-16 128,-67 169,-55 37,11 87,-2 111,-29 51,-44 18,-85 43,-130 15,-27 64,-64 89,-83 44,-33 188,-179 238,-158 64,26 53,63 139,56 48,-4 167,-71 203,-102 30,-26 71,-78 103,-95 95,-51 -112,-166 -168,-180 -113,-9 -125,-94 -118,-193 9,-130 7,-108 -107,-108 -172,0 -336,221 -514,221 4,-13 116,-106 135,-132 70,-94 90,-107 191,-101 54,3 90,-28 139,-40 21,-5 52,20 69,15 66,-22 111,53 181,-22 l 151,-162 c 52,-56 284,-213 209,-271 -50,-39 44,-105 68,-127 47,-47 -6,-153 58,-223 50,-55 129,-74 175,-141 26,-38 225,-356 128,-380 0,-2 -1,-3 -2,-5 28,-9 79,-99 74,-128 59,-68 102,-170 129,-252 31,-94 -19,-66 -19,-140 0,-160 97,-346 190,-470 15,-20 72,-79 77,-98 49,-21 31,-60 52,-84 19,-22 50,-28 61,-55 9,-23 86,-149 44,-160 -15,-61 -8,-125 -27,-186 -24,-78 -26,-93 -26,-174 -45,-11 -102,-58 -118,-102 l -18,-51 c 0,-3 -2,-4 -2,-6 -61,0 -96,-13 -151,-28 -44,-12 -83,-69 -119,-69 l -29,35 c -36,51 -80,58 -137,52 -38,-4 -85,-51 -114,-51 l -2,1 c -39,159 -509,12 -613,32 -51,10 -142,-44 -206,-50 -78,31 -108,27 -180,84 -54,43 -150,-4 -204,-23 -69,-25 -263,-144 -320,-119 -71,32 -149,60 -224,60 16,49 -1,112 -67,112 -82,0 -99,-26 -99,57 -18,0 -13,-60 -38,-60 -42,0 -79,12 -117,28 -51,33 -89,90 -139,122 -118,75 -140,33 -252,15 -45,-7 -71,34 -125,34 0,36 86,43 45,87 l -103,108 c -25,26 -55,-16 -58,39 -4,70 -63,20 -85,20 -64,0 -128,27 -197,27 -44,0 -54,-40 -89,-49 18,-55 220,31 274,-15 80,-69 14,-180 178,-180 -27,-82 57,-154 113,-223 20,-10 73,-45 35,-59 -42,-15 -44,-23 -81,0 -44,27 -110,78 -163,26 -46,-46 -198,100 -232,136 -42,45 -94,76 -139,121 10,-39 15,-69 40,-100 21,-27 55,-40 69,-74 13,-33 28,-32 55,-50 35,-24 25,-53 79,-67 l 152,-24 c 65,-10 64,-64 106,-94 20,-14 52,-5 75,-10 7,-1 34,-24 34,-19 0,35 -34,71 -34,99 0,12 78,70 81,33 2,-21 24,-47 33,-66 35,-79 101,-161 151,-234 27,-39 186,-234 47,-165 -55,27 -12,90 -111,90 -87,0 -68,-88 -164,-17 -54,40 -58,13 -111,-5 -40,-13 -112,-3 -144,-34 -40,-40 -60,-29 -113,-39 -32,-6 -135,-43 -135,-85 12,37 265,77 311,89 42,11 65,-12 102,-22 71,-20 77,50 77,-62 0,-112 59,-74 -43,-136 -63,-39 31,-14 43,-4 30,28 31,-44 47,-72 101,-63 166,-40 201,-165 14,-49 222,-194 270,-221 50,-28 124,-129 165,-139 3,-14 69,-49 84,-80 l 46,-99 c 17,-37 141,-134 145,-146 14,0 39,-11 51,-17 40,-9 85,-57 128,-62 29,-3 42,-51 61,-69 34,-34 119,-95 129,-139 9,-42 23,-88 38,-128 24,-67 -5,-74 -32,-117 -40,-65 -71,-89 -63,-182 93,-47 164,-215 164,-314 l -116,-20 c -26,-4 -44,18 -57,59 -44,0 -48,-68 -116,-57 -57,9 -118,32 -176,13 -24,-7 -60,-64 -73,-45 -17,26 -48,79 -6,96 63,26 53,70 35,123 -41,-10 -100,-96 -178,-71 -132,44 -5,-53 -131,-23 -44,11 -105,4 -141,38 -50,46 -123,102 -195,108 -45,0 -284,12 -294,-51 -17,-106 -63,105 -119,77 -67,-33 -76,41 -133,41 -49,0 -29,18 -61,45 -27,23 -82,-17 -107,-30 -67,-35 -219,195 -232,251 0,-20 17,-144 27,-156 37,-48 49,-64 23,-129 -21,-52 -77,-63 -133,-65 -209,-42 -37,123 -154,162 -70,23 -89,151 -170,180 -22,8 2,-42 6,-48 33,-45 93,-121 112,-173 32,-91 -128,-107 -161,-188 -2,-4 -6,61 -11,73 l -51,134 c 8,-23 16,-59 16,-85 0,-19 -32,-37 -34,-65 -6,-84 -60,-112 -141,-112 -42,0 -107,-50 -107,2 0,59 -10,140 -40,186 -22,34 -67,22 -88,49 -29,37 -21,80 -41,116 -14,25 47,55 68,66 80,42 -9,53 -45,80 -63,72 46,82 58,119 -58,0 -68,-44 -105,-48 -33,-3 6,78 -66,74 -48,-2 -41,32 0,32 38,0 9,33 9,62 0,56 35,65 35,119 0,90 89,92 106,144 -44,0 -52,-40 -102,-17 -39,17 -83,35 -128,13 -32,-15 -63,-40 -28,15 11,17 -61,49 -84,39 -61,-27 -62,-91 -112,-27 -32,41 -5,30 23,48 64,39 53,194 111,219 80,36 -12,5 22,76 15,25 25,138 -7,152 -14,6 -112,-21 -126,-30 -21,-14 -61,-74 -77,-78 0,32 -61,79 -26,101 49,30 24,43 24,85 74,0 127,43 156,108 43,96 104,61 182,110 54,33 -36,91 -27,100 l 58,52 c 46,41 140,157 140,221 -29,0 -62,-130 -94,-150 l -167,-101 c -50,-30 -98,19 -135,-34 -22,-31 -33,-12 -69,-12 0,69 73,60 107,111 15,22 174,132 119,121 -40,-9 -61,-40 -101,-46 -29,-4 -67,-71 -111,-89 -118,-48 -29,61 -114,107 -113,10 -137,-70 -137,-165 -32,-8 -98,-49 -105,11 -3,30 -38,92 -7,116 81,63 75,106 50,189 -7,21 0,48 7,67 17,44 -78,12 -89,-44 -8,-40 -8,-62 -22,-99 -14,-38 -4,-119 -51,-107 -54,13 -82,28 -140,28 0,38 5,282 18,294 70,63 164,33 164,144 -18,0 -35,-28 -62,-28 -106,0 -82,65 -126,136 -44,78 61,42 80,102 8,24 32,79 51,95 53,44 26,89 116,89 81,0 91,-9 162,27 v 13 c -42,10 -68,-3 -106,1 -19,2 -16,22 -38,6 -14,-10 -34,-12 -46,-6 0,18 13,32 13,51 0,36 -56,-31 -58,-33 -30,-24 -6,-39 -27,-60 -2,0 -2,1 -4,1 -16,65 -137,-79 -164,-83 -1,-6 -14,-6 -19,-5 -1,3 -1,2 -4,2 -29,114 -43,276 -21,390 16,4 37,-2 50,2 6,24 -6,65 -5,93 0,11 39,127 45,136 27,42 94,-19 117,-37 32,-14 94,-82 124,-82 8,0 -6,48 18,68 115,97 133,-73 213,-100 -35,46 -38,102 -91,139 -29,20 -115,76 -150,51 -55,-39 -78,38 -107,74 -57,71 14,81 74,73 95,-13 179,21 251,73 28,20 54,47 80,66 44,31 -32,6 -49,-4 -43,-25 -84,-114 -139,-95 -39,13 -100,23 -120,60 -35,62 50,37 16,97 -56,101 -155,153 39,168 59,5 32,105 146,105 61,0 -15,35 -52,28 -49,-9 -58,-59 -113,-56 -9,1 -147,-31 -150,4 -2,30 -79,109 -102,133 0,48 64,97 107,77 54,-26 44,30 56,61 9,24 112,98 86,100 -70,5 -134,-18 -153,-94 -32,0 -85,8 -118,-1 -48,-13 -42,124 -62,165 -11,23 -24,38 -38,58 -25,36 67,46 -11,72 -38,13 -84,83 -7,67 81,-17 132,-44 215,-44 0,25 -85,59 -67,79 6,6 104,21 69,37 -35,16 -165,43 -173,68 -11,37 -54,83 -45,119 3,13 4,88 -10,87 -50,-4 -53,-114 -109,-73 -59,42 -142,27 -210,33 -92,25 -201,48 -123,174 42,68 183,2 264,32 63,23 119,3 181,17 94,22 134,-85 238,-85 66,0 135,60 224,60 v 2 c -84,21 -115,19 -193,-16 -102,-45 -154,124 -238,72 -54,-33 -141,44 -198,44 v 2 c -2,1 -1,2 -1,5 53,18 113,193 175,240 56,42 136,53 204,73 34,10 80,63 85,63 144,11 259,-226 332,-318 52,-21 108,-92 150,-130 27,-25 36,-59 60,-83 19,-19 33,20 63,-5 18,-15 22,-60 35,-83 23,-40 212,-239 159,-262 -77,-34 -187,-20 -274,-41 41,-25 340,12 322,51 -39,83 -90,172 -146,249 -34,46 -96,94 -7,100 30,2 -57,76 -69,83 l -84,45 c -40,22 18,8 21,32 3,29 -55,77 -79,89 -47,24 -32,58 -60,96 -20,53 -15,128 55,95 64,-30 -15,78 -60,26 -36,-42 -43,4 -67,50 -5,9 -56,64 -29,66 43,3 69,-53 69,13 0,43 36,38 69,27 -25,25 -54,32 -90,28 -5,-1 -128,107 -165,121 -35,13 -89,72 -26,82 64,10 22,1 34,50 7,26 -49,101 -77,106 -99,19 -48,46 -67,116 -26,50 -22,96 -10,144 3,12 -1,87 12,69 30,-39 18,-129 40,-174 25,-51 7,12 32,18 13,3 83,-19 94,-27 0,33 -58,86 -58,134 0,46 -38,126 -61,166 -14,24 -25,63 15,33 22,-17 44,-79 72,-84 -16,28 -34,80 -33,112 1,21 27,56 13,77 -13,19 -42,17 -54,40 l -128,247 c -1,25 -41,88 -18,111 21,21 33,156 49,135 11,-14 88,-132 75,-63 -10,50 -19,74 -41,119 -34,68 -51,107 -17,179 20,43 40,85 86,85 0,33 -21,154 -58,161 -119,23 -13,84 -67,154 -4,29 -7,52 -4,82 -76,100 -29,258 -45,380 -13,97 -87,89 -116,166 -21,57 -11,168 -11,229 47,28 102,62 156,23 27,-19 69,-30 102,-28 52,4 109,-58 140,-94 41,-48 -11,-115 -19,-163 -16,-20 -48,-27 -73,-27 0,-21 98,-18 84,-80 -10,-44 38,-63 43,-106 7,-67 26,-134 26,-204 0,-55 68,26 40,-66 -25,-81 2,-197 33,-273 18,-45 44,-97 84,-124 38,-26 85,-26 99,-80 0,-87 -124,-220 -156,-310 -38,-107 -43,-204 -43,-317 103,59 126,46 171,-62 15,-37 52,-39 68,-90 9,-28 50,-65 67,-99 15,-46 74,-69 114,-84 67,-25 80,-143 111,-193 14,-23 135,-62 162,-62 -12,3 -97,71 -107,84 -61,82 -52,154 -148,202 -25,13 -58,11 -73,39 -29,54 -23,67 -77,106 -42,31 -63,142 -95,185 -42,56 -52,147 -52,217 29,107 4,169 120,217 29,12 49,41 78,50 44,13 6,-37 -5,-59 -30,-60 -40,-103 1,-157 27,-35 11,-130 67,-62 26,32 66,45 96,76 50,50 42,-26 28,-58 -12,-27 -18,-65 -32,-89 -23,-40 -32,-81 16,-21 36,45 62,123 77,178 10,38 -23,86 17,88 24,1 65,22 80,5 29,-33 44,-143 69,-190 11,-21 21,-51 23,-74 2,-24 -35,-17 -41,-37 89,18 50,-33 44,-94 18,-67 50,-133 29,-196 -15,-47 -19,-69 -22,-122 -5,-114 44,62 55,93 5,14 74,-140 99,-165 0,54 -51,166 -77,217 -22,44 -30,279 26,266 38,-9 138,-4 69,-60 -35,-28 -61,-89 -61,-134 29,29 79,115 117,129 47,18 51,30 66,74 30,92 241,88 298,132 -95,0 -232,1 -323,-38 -41,-17 -97,-53 -142,-38 -19,6 -37,6 -55,18 -26,19 -12,55 -28,76 -10,79 -16,147 -4,230 l 26,174 c 5,35 -27,53 -46,77 -21,26 -7,104 22,122 44,27 79,89 91,136 74,19 177,58 204,140 0,21 23,49 17,66 -21,54 -21,11 24,67 35,44 25,154 -5,200 -39,60 -92,46 -146,74 -33,18 -20,86 -29,119 -9,34 -109,122 -108,126 3,32 8,57 6,93 -2,35 -27,59 -27,101 -25,50 -73,106 -91,154 -28,74 -68,58 -100,105 -15,23 -1,95 -24,128 -99,138 -63,280 16,424 36,66 -107,51 -113,-20 -3,-39 9,-80 0,-117 -6,-27 -45,-79 -45,-100 -90,0 -101,116 -118,180 -25,99 69,193 92,274 35,62 110,89 151,144 25,34 111,197 95,230 -45,92 59,158 147,158 -4,-15 -47,-27 -43,-59 l 9,-65 -42,-56 -23,-111 c -14,-68 -87,-152 -15,-195 36,-22 124,-106 162,-60 17,21 34,53 61,59 23,5 70,-9 86,7 45,46 74,61 126,96 73,49 90,147 185,193 36,17 140,88 168,69 53,-36 45,-75 33,-133 -11,-55 65,-184 7,-229 -31,-25 -59,-44 -54,-89 11,-90 37,-10 81,7 25,11 96,66 116,66 19,0 34,-61 44,-18 10,44 47,92 84,119 29,21 112,39 124,74 h 2 c 0,-41 -15,-50 2,-95 3,-9 24,41 34,50 71,63 240,-41 303,-84 51,-36 80,-88 136,-127 82,-57 62,-25 142,-20 62,-31 139,2 139,-106 0,-33 -32,-61 -16,-97 13,-30 4,-55 4,-88 35,0 53,46 107,41 93,-8 181,-22 277,-4 79,15 251,16 316,-24 77,-48 40,-1 16,29 -53,66 19,34 54,34 0,106 -229,-6 -254,15 -34,29 -93,4 -112,46 -4,10 -17,36 -6,46 5,5 19,7 28,7 6,0 32,-2 33,1 -38,13 -11,122 -96,50 -73,-62 -93,63 -128,127 -30,55 -34,75 -23,133 10,51 -40,97 -62,136 -34,73 -114,120 -143,206 -14,40 -2,70 -2,108 0,48 -34,99 -34,154 0,38 -29,48 -56,59 -33,13 61,102 68,130 10,41 36,33 58,61 21,26 40,54 55,85 15,65 72,105 105,157 22,35 12,99 17,140 8,72 92,147 120,217 43,105 81,12 147,12 0,55 -105,122 -58,193 5,44 112,281 174,180 40,-65 130,-280 179,-317 6,17 52,63 67,79 35,38 12,53 46,5 24,-34 117,-186 134,-118 25,102 100,239 -23,286 -36,14 -79,149 -54,162 124,64 -77,200 -154,204 -84,4 -30,63 -39,123 -11,73 -9,153 -9,227 5,183 220,95 326,95 v 0 c -38,0 -115,90 -144,117 -37,35 -95,40 -117,91 -48,114 -206,203 -79,330 69,97 58,237 136,341 87,117 215,173 339,79 16,33 -49,124 -75,144 -174,133 -352,-264 -381,-377 -29,0 -120,79 -164,91 -106,31 20,145 52,213 36,77 91,127 91,224 -82,21 -288,-322 -371,-322 -161,0 -298,165 -485,165 -93,7 -99,-75 -159,-66 -81,12 -98,-46 -173,-46 0,35 31,44 17,91 -19,67 -101,56 -150,66 -41,8 -110,46 -145,46 l -1,-1 c 0,-3 65,-162 41,-147 -38,24 -62,-9 -107,11 -117,52 -214,-149 -236,-235 -36,0 -72,-7 -105,-23 -70,-35 -65,-13 -137,-6 -39,3 -64,7 -97,27 -11,6 -24,10 -36,12 -7,1 -39,0 -39,7 49,24 -16,238 -44,238 -45,0 -26,-68 -90,-37 -34,17 -30,45 -30,83 22,4 70,-13 83,16 42,94 -6,59 107,91 41,12 51,49 57,88 3,20 89,99 113,118 47,39 89,59 146,73 v 2 c -83,28 30,136 -22,188 -17,28 -47,96 -75,108 -17,8 -62,-3 -62,23 0,43 -141,170 -159,113 -88,22 -387,399 -257,399 7,-28 41,-42 64,-38 66,11 218,-141 218,46 h 4 c 5,-14 21,-24 35,-30 7,-3 39,-6 39,-12 2,-1 -11,-47 -11,-59 0,-146 262,-227 388,-227 75,0 185,123 135,193 -59,82 3,146 69,222 -4,25 0,70 32,63 21,-4 43,-26 62,-26 0,35 -75,85 -99,106 -56,50 -68,156 -32,219 20,36 26,65 43,97 5,10 88,15 105,15 0,2 1,2 1,4 -26,9 -59,8 -84,16 0,35 17,114 0,144 -14,24 -28,27 -34,56 -5,28 -7,72 -16,96 -56,132 -100,204 -186,318 -25,34 -64,72 -95,101 -35,33 -74,19 -113,34 -34,13 -39,47 -61,72 -31,35 -94,73 -134,107 -47,40 -70,1 -111,10 l -208,45 c -23,5 -67,123 -113,144 -40,14 -76,-1 -66,54 7,36 -50,33 -55,15 -4,0 -4,-2 -7,-2 -1,-2 0,-1 -2,-1 -2,-6 -11,4 -12,7 -21,58 -112,124 -112,13 -29,-7 -130,-9 -161,-1 0,41 41,115 -19,138 -81,31 -141,55 -220,101 -75,44 -99,28 -99,130 128,0 177,-54 277,63 26,30 54,160 -11,160 -97,0 -28,-12 -92,51 -74,72 -112,-8 -2,68 16,11 10,67 39,67 11,0 35,-69 73,-76 111,22 158,38 274,38 0,30 -216,36 -248,41 -68,11 35,41 49,48 58,28 -22,90 62,118 l 130,44 c 65,22 107,-103 181,-100 91,4 110,-25 195,-46 0,-123 28,-199 185,-172 40,7 75,43 119,29 31,-10 74,-41 103,-41 7,27 60,93 83,107 38,82 81,46 142,46 0,45 4,54 -28,97 -13,19 -68,49 -68,60 0,37 36,105 71,123 67,36 86,21 161,40 0,-112 178,-60 258,-60 -30,-89 56,-117 136,-117 96,0 158,191 181,260 40,119 163,40 223,160 42,135 301,143 418,119 177,-35 156,22 216,-143 88,-238 270,-145 445,-204 71,-24 145,-95 219,-129 94,-44 72,-129 134,-191 135,-62 213,-160 326,-245 0,65 -127,111 -148,168 -20,53 -83,86 -108,152 -20,53 -81,61 -103,115 -25,61 -46,162 -112,195 -89,45 -151,60 -214,155 -40,85 -155,92 -184,157 -30,67 -47,138 -44,213 2,52 6,97 -36,133 -36,30 -59,18 -99,1 -70,-30 -93,23 -158,41 -91,26 -121,39 -220,19 -41,2 -91,-48 -124,-63 -112,-54 -391,85 -480,-49 h -5 l -1,1 v 2 c -63,43 -189,34 -271,61 -69,22 -165,22 -237,33 -34,5 -100,3 -90,43 9,35 -19,54 -39,78 -21,25 0,120 -7,158 -13,69 -45,120 -84,178 -64,35 -127,63 -175,-16 -17,-27 -122,-28 -153,-28 0,105 -59,176 -64,268 -5,78 27,156 22,240 -5,74 -48,54 -94,91 -65,53 -42,129 -135,175 -22,11 -95,8 -83,39 15,36 0,95 -27,122 -59,63 -130,59 -203,59 0,49 8,54 -44,54 -15,47 -71,39 -109,39 -19,73 13,310 -108,301 -90,-7 -67,118 -100,177 -34,61 -71,20 -101,93 -16,40 -69,69 -97,97 -62,62 -72,11 -129,62 -44,39 -73,112 -107,12 -25,0 -39,-3 -66,6 -71,29 -121,97 -192,115 -34,8 -97,59 -78,102 21,46 -27,114 -17,122 38,28 45,79 97,51 42,-22 101,-44 146,-54 33,-7 5,-48 21,-74 30,-49 101,-66 140,-18 58,72 189,46 238,152 29,63 14,167 107,190 12,-48 40,-58 74,-88 28,-17 82,-11 84,-16 13,-36 46,-78 46,-118 0,-25 -42,-58 -54,-79 -12,-22 29,-33 32,-56 5,-42 24,-62 33,-96 8,-32 5,-69 13,-102 38,10 19,131 39,151 15,-16 30,-15 46,-28 29,-23 8,-93 39,-116 29,-21 38,11 61,13 7,1 60,-71 85,-80 55,-21 57,21 89,32 0,-25 26,-45 26,-72 0,-38 -1,-60 4,-98 11,-5 20,-11 30,-13 2,-7 7,-24 -4,-26 -17,-67 106,-113 106,-16 31,10 118,-44 175,-32 99,22 167,-41 263,-60 40,-8 93,-2 131,6 32,7 68,55 86,58 0,3 11,14 13,15 1,3 1,2 4,2 3,11 26,9 32,9 12,-58 40,-114 112,-96 1,2 0,2 2,2 0,171 130,136 259,136 39,19 98,40 102,89 4,55 46,96 94,119 25,12 108,-58 134,18 13,-3 19,-31 43,-37 17,-4 37,-6 56,-6 0,-72 -16,-114 34,-186 46,-67 66,-87 150,-87 l 1,-1 c 0,-65 45,-94 58,-147 -103,0 -173,-111 -55,-111 46,0 74,-6 35,-45 -32,-32 -27,-84 -13,-126 0,-26 70,-136 89,-165 23,-35 136,-11 193,-65 60,-55 83,-103 171,-117 40,-7 107,4 134,-23 24,-24 64,-29 96,-22 73,15 126,-64 192,-74 40,-6 142,42 184,56 63,53 348,152 431,255 7,11 11,23 16,35 5,11 12,19 20,28 8,8 3,36 3,48 0,20 5,30 10,47 1,0 6,-16 7,-19 7,-16 20,-27 21,-45 1,-12 -19,-36 -27,-46 -12,-17 -25,-31 -30,-52 l 1,-11 z m 7105,1606 h -2258 l 112,-53 c 130,11 342,-123 426,-216 55,-61 133,-107 201,-157 76,-57 87,-67 119,-155 22,-106 74,-93 128,-162 2,-3 -43,-134 -41,-163 2,-43 13,-96 30,-135 28,-63 -1,-136 16,-206 15,-59 25,-193 7,-251 -4,-49 1,-120 9,-169 7,-48 -2,-100 -12,-145 -17,-72 57,-139 57,-223 0,-52 -16,-112 -32,-161 -21,-65 32,-28 64,-33 67,-11 141,-129 204,-167 66,-40 143,-52 214,-90 33,4 80,-19 116,-24 58,-9 105,-17 163,-34 32,-9 66,15 95,-13 54,-54 71,-63 145,-77 61,-12 109,24 175,6 l 63,-13 v 2643 z M 7005,19774 c 53,0 91,-2 142,10 14,3 77,30 83,24 25,-25 32,-97 56,-133 30,-45 -13,-28 -22,-62 -82,0 -78,-87 -78,-150 -22,0 -38,45 -52,41 0,-36 -37,-129 -54,-162 26,0 45,57 81,40 19,-8 61,20 58,-1 -3,-30 -8,-43 1,-76 48,-134 143,-219 208,-336 60,-109 -13,-155 -13,-262 0,-60 54,-148 99,-185 52,-52 12,-129 30,-188 14,-45 67,-130 106,-152 12,-7 31,-89 35,-107 10,-42 73,-118 73,-156 l 1,-1 c -127,-43 -76,-152 -58,-253 38,-151 -119,-275 -119,-425 0,-40 21,-75 21,-112 -38,-8 -115,-17 -130,-55 -9,-21 -35,-96 5,-106 8,-33 85,-78 116,-54 59,47 81,86 81,-22 -38,0 -116,14 -146,-13 -20,-18 4,-113 9,-141 17,-68 53,-138 66,-204 18,-90 -28,-106 -90,-156 -35,-28 -66,-78 -88,-116 -20,-35 -53,-149 -44,-186 12,-37 3,-83 21,-121 4,-9 41,-70 19,-76 -5,-20 -75,16 -54,-50 9,-28 35,-66 35,-94 -44,-15 -116,-30 -154,-52 0,-42 -29,-113 -35,-162 -8,-60 29,-98 40,-154 43,-9 98,57 156,65 46,6 155,20 184,-23 25,-38 -38,-54 -38,-87 -13,-5 -31,19 -50,5 -13,-10 -29,-36 -41,-50 -17,-19 -116,-123 -99,-134 12,-8 81,19 100,23 61,14 9,42 45,66 24,16 37,17 67,21 112,16 -25,39 74,72 30,10 62,-25 83,-45 66,-30 120,-97 169,-146 17,-17 36,-189 16,-212 -46,-54 30,-93 77,-106 45,-12 212,-73 230,-2 16,62 38,19 54,-10 2,-5 5,-41 7,-43 18,71 131,-126 135,-167 0,-49 0,-88 -32,-124 -45,-51 -97,10 -142,22 -46,12 -12,-43 6,-58 26,-23 19,-98 19,-132 0,-42 -15,-181 -45,-204 -48,-36 -75,-24 -34,-71 37,-42 20,-71 75,-37 118,73 168,143 168,292 0,60 -64,124 -26,167 27,30 60,179 83,110 11,-32 46,-140 46,-167 0,-37 -37,-66 -10,-96 78,-87 5,-177 -17,-285 -13,-64 -61,-97 -81,-155 -22,-64 5,-127 -90,-147 -74,-15 -183,-10 -251,23 -42,20 -180,135 -207,135 0,-122 40,-181 145,-244 17,-8 30,-19 47,-27 9,-4 18,-4 27,-9 14,-8 34,-14 46,-24 16,-15 56,-66 56,-88 0,-31 -13,-58 -15,-87 -1,-20 -12,-36 -16,-55 -11,-53 -53,-76 -106,-76 0,55 58,93 50,149 -15,-19 -16,-41 -36,-62 -23,-23 -44,-24 -57,-57 -26,-64 7,-114 -73,-157 -59,-32 -34,-100 -78,-138 -66,-57 -127,-46 -83,-156 63,-73 -40,-85 -78,-91 -70,-11 -39,-52 -22,-106 51,-158 2,-192 -117,-279 -80,-59 -118,-48 -213,-48 -37,0 -78,-29 -112,-29 -52,0 -110,39 -152,-9 -27,-30 -103,14 -103,54 l -227,66 c -72,36 -81,84 -156,65 -85,-22 -126,28 -210,-35 -35,-26 -42,50 -54,73 l -81,162 c -14,28 -18,83 -40,99 -65,48 -138,-11 -197,-15 -46,-3 -54,17 -91,29 0,-62 28,-100 50,-157 83,-83 165,-114 255,-182 31,-23 198,-106 153,-155 -26,-28 -102,-20 -119,-49 -20,-34 -116,-42 -161,-71 -97,-62 -45,-170 -201,-180 -61,-4 -131,-51 -179,-51 0,35 93,68 61,111 32,42 -28,67 -64,104 -22,22 -58,58 -90,52 -21,-4 -63,-46 -78,-17 -25,48 -1,128 -46,169 -49,45 18,56 47,94 18,23 86,137 73,165 -18,39 -42,58 -17,101 22,38 48,58 -12,74 -30,8 -72,60 -75,60 -19,0 -27,2 -40,17 -31,34 -98,131 -140,141 0,-88 133,-148 133,-208 0,-51 -34,-21 -63,-20 -19,1 38,-67 47,-77 40,-40 76,-69 63,-135 -13,-70 -70,-167 -150,-167 0,-26 35,-52 38,-82 3,-38 -15,-65 -35,-94 -29,-69 -61,-23 -88,21 -30,49 -99,13 -111,45 -12,34 -25,21 -33,-11 -25,0 -41,35 -56,51 -14,15 -57,18 -63,32 -19,42 81,99 44,121 -18,10 -46,-12 -61,-24 -25,-20 -88,-30 -89,-51 0,-8 -9,-59 -12,-60 0,-2 -1,-2 -1,-4 -130,0 -82,52 -140,130 -34,21 -138,103 -167,88 -38,-21 -175,-94 -175,-23 0,53 -28,83 -28,140 0,49 -71,150 -124,140 -58,-11 -30,22 -43,68 -12,42 -73,16 -66,100 2,28 23,140 35,155 14,17 70,39 91,40 28,2 43,-45 47,-18 6,39 31,61 -17,51 -97,-20 27,101 54,107 -45,-15 -73,1 -116,-40 -50,14 -76,13 -125,13 -38,0 -76,22 -113,32 0,32 78,71 74,91 -3,15 -63,80 -73,80 -21,-65 -116,-3 -147,6 -60,17 -99,76 -131,123 -32,47 -29,27 -79,27 0,14 38,71 13,77 0,15 23,31 33,43 34,26 98,5 129,40 22,25 15,55 62,44 85,-20 72,60 152,6 48,-32 67,-61 83,15 14,67 57,-59 88,-28 18,18 57,-28 57,-1 0,43 -19,68 -49,97 36,0 81,-60 101,-85 12,-15 97,-81 97,-57 0,36 -21,69 -21,94 0,24 76,-17 88,-27 20,-16 152,-104 144,-69 -7,31 -6,79 -19,107 -26,55 -197,158 -169,229 28,70 -50,76 -105,94 -80,26 -114,73 -182,-1 -8,-9 -18,91 -27,102 -21,27 -64,44 -97,50 -28,24 -73,0 -100,37 -28,37 -36,30 -72,48 -27,13 4,51 10,68 20,60 55,9 113,20 56,10 39,16 19,48 -21,35 71,57 88,90 29,58 -110,3 -119,-34 -3,1 -4,24 -6,29 -5,12 -59,45 -38,58 47,31 88,44 88,110 0,58 -95,-45 -107,-61 -31,-41 -30,-75 -81,-62 -40,10 -65,-18 -86,-12 -70,17 -109,83 -173,13 -86,-93 -152,-17 -243,-67 -14,-8 -88,176 -96,210 -53,0 -119,-15 -123,-77 -5,-85 -58,-70 -80,-121 -22,-17 -99,-91 -129,-78 -77,34 -11,40 -96,28 -200,-28 -382,0 -564,-66 -14,-5 -75,27 -94,34 -23,8 25,58 28,73 8,37 -60,22 -61,76 l -2,119 c -21,5 -100,7 -122,1 -12,-3 128,-46 94,-123 -3,-6 -41,-4 -49,-4 -51,0 -98,-88 -123,-88 0,63 -109,62 -113,130 -2,27 59,29 46,60 l -46,111 c -13,31 -90,170 -44,202 97,68 39,7 58,-56 11,-34 -2,-97 38,-97 29,0 52,-122 66,-144 10,-17 48,31 58,37 22,12 61,28 61,56 -28,7 -36,4 -64,4 0,39 44,4 23,59 -7,19 9,77 28,80 0,29 -27,34 -55,34 -19,0 16,71 18,102 5,62 95,-12 101,-37 2,0 2,1 2,-1 13,4 -14,64 -18,72 -15,29 3,69 23,91 5,24 72,68 12,45 -56,-22 -59,27 -4,45 14,5 97,53 100,61 -74,0 -124,11 -196,-5 -29,-6 -23,-56 -2,-71 37,-27 -21,-77 -28,-99 -25,8 -29,44 -75,22 -75,-35 -62,29 -122,44 -55,14 -67,-33 -111,-33 0,100 -103,44 -55,117 14,21 193,5 233,5 0,33 -11,74 0,107 8,24 43,-7 69,26 l 58,72 c 19,23 9,81 43,39 27,-34 134,29 188,-38 58,-70 62,-12 134,-17 l 185,-13 c 11,-1 25,55 33,71 8,17 -162,32 -60,128 19,18 63,21 75,37 27,34 -118,21 -133,27 -86,35 -150,5 -235,45 -34,16 -113,13 -133,27 -10,7 0,36 -1,50 -2,19 -16,50 -23,69 -8,41 -1,119 29,143 57,44 64,34 18,80 -41,42 -57,55 -118,26 -25,-12 -83,5 -113,2 -70,-6 170,131 52,88 -38,-14 -123,-14 -164,-10 -17,2 49,35 22,38 -45,5 -38,-29 -81,-2 -94,58 -10,30 13,91 30,79 60,29 118,72 -47,16 -47,29 -9,61 16,13 47,39 22,61 -39,35 -65,-50 -118,-13 -35,24 -45,46 -56,90 13,0 44,-13 52,-5 59,59 113,-46 150,43 13,31 113,74 144,60 21,-9 69,-91 77,-63 21,75 87,-59 116,6 14,32 -27,34 -54,45 -45,19 -38,34 -71,57 -44,62 26,65 46,90 34,42 12,55 86,55 119,0 121,-181 216,-205 17,51 -5,81 40,130 37,40 12,128 12,186 0,112 86,-60 94,-84 h 4 c 0,106 -19,151 123,127 143,-24 295,-48 440,-48 54,17 108,9 153,-20 27,-17 57,-15 88,-19 79,-13 29,16 24,57 -2,20 -67,49 -84,55 10,10 53,11 71,23 16,11 71,-11 92,-11 0,7 -24,31 -28,43 -4,12 9,83 -5,77 -47,-21 -107,-16 -158,-16 -15,0 -42,27 -54,38 -13,12 -49,64 -58,65 -41,15 -114,-38 -154,-54 -37,-14 -49,-17 -49,29 0,38 -30,117 -69,128 -29,8 -85,103 -97,132 -30,41 -29,105 -62,151 -18,25 -54,55 -54,87 39,0 247,-29 150,50 -67,54 -92,67 -92,156 0,57 -84,71 -84,104 0,40 14,80 -10,117 -31,48 -109,-4 -167,32 -28,17 -30,55 -49,79 l -80,105 c -44,23 -64,56 -112,78 -36,16 -13,48 -40,71 -15,12 -92,35 -116,45 -46,21 -46,23 -77,65 41,0 135,-34 157,-22 57,31 98,-49 161,-33 7,2 21,-74 81,-84 67,-11 109,2 170,-44 30,-23 129,89 221,61 14,-4 142,-78 129,-30 -12,41 -53,24 -26,78 14,29 62,-43 73,-51 51,-41 87,-6 135,-24 53,-20 79,-77 123,-98 44,-35 106,-28 106,-91 0,-24 27,-121 35,-147 10,31 38,185 68,185 81,0 116,-29 192,5 23,10 -102,34 -131,34 -106,0 -131,134 -229,79 -17,-10 -16,12 -24,22 -32,37 -397,168 -411,111 -12,-49 -98,3 -134,22 -56,30 -32,-18 -69,-18 -38,0 -38,31 -97,9 -65,-6 -113,-46 -141,45 -16,51 9,124 -50,157 -101,57 -104,136 -248,136 -59,0 -184,49 -58,73 117,23 157,95 85,207 -52,81 51,108 136,108 8,34 -54,43 -81,15 -24,-24 -41,42 -64,52 -139,62 -235,-39 -235,-165 -2,-1 -3,-1 -4,-4 h -21 c 0,123 -147,175 -150,133 -11,-150 -149,-23 -237,21 -22,9 -77,22 -92,39 -19,21 34,18 19,41 -14,23 -5,84 -38,84 -50,0 -45,-41 -45,-80 -24,6 -101,65 -72,91 34,30 -55,187 52,161 34,-8 61,-2 94,-6 21,-3 -5,-44 2,-62 13,-32 75,44 92,50 34,11 27,-80 41,-62 11,14 41,38 61,38 42,0 47,36 105,20 58,-17 118,-23 178,-52 98,0 259,-96 336,-40 49,35 -18,55 -58,76 -13,6 -41,23 -55,22 -24,-2 -7,-60 -32,-60 -4,18 -70,253 -96,147 -2,1 0,0 -2,1 v 2 c -2,1 -24,48 -36,58 -52,42 -159,37 -226,82 -38,25 -78,27 -113,46 -31,17 -65,47 -96,61 -21,19 -29,61 5,69 l 1,1 v 4 c -25,8 -49,-3 -74,9 -21,9 -91,46 -108,60 -14,11 -24,35 -4,39 33,7 31,29 46,37 0,23 -13,39 -11,62 1,9 50,-3 58,-5 34,-7 11,127 11,143 1,1 2,1 2,2 29,7 96,-37 113,-59 17,-21 28,-41 49,-58 5,-5 41,-21 45,-6 2,1 1,2 4,2 1,2 2,1 2,4 2,1 6,3 6,5 8,2 19,11 28,13 7,29 -6,64 -26,89 -27,34 17,32 38,51 45,42 50,77 113,48 l 224,-105 c 99,9 163,-64 240,-101 l 94,-46 c 96,-47 121,-25 19,38 l -181,112 c -69,43 -22,78 -123,78 -23,0 -194,89 -128,108 82,24 -31,91 -61,102 -33,13 -119,-40 -77,21 56,82 11,104 -71,104 -68,0 -86,52 -141,66 9,6 153,-23 192,-13 117,29 168,-61 275,-55 48,3 194,-14 96,-82 -3,-2 113,-12 164,-41 80,-46 176,-4 252,-93 51,-60 93,-55 69,16 145,-36 -26,101 -63,121 -102,54 -251,85 -336,161 -14,19 -94,86 -94,100 85,-12 142,-54 220,-83 64,-24 109,-87 182,-87 l 1,1 c 0,56 -210,212 -263,233 -35,14 -65,34 -94,57 -53,43 0,74 49,71 22,-1 29,28 55,10 44,-30 75,-86 117,-122 26,-23 60,4 80,13 74,34 206,-93 277,-93 0,23 15,111 11,121 -59,133 129,18 197,-6 67,-23 56,39 125,-30 34,-34 96,-81 111,-127 15,0 22,27 63,15 39,-12 57,-22 102,-22 107,53 101,90 168,-30 39,-71 183,-78 204,6 89,13 75,-61 83,-133 2,-22 131,-17 156,-17 7,13 35,61 50,61 1,2 1,1 4,1 l 1,-1 c 0,-29 -15,-63 -7,-93 8,-29 38,-55 45,-83 29,-4 29,41 73,0 104,-97 184,-41 237,-201 67,-147 -50,-76 -50,-185 59,0 113,-16 170,-16 -13,53 -89,18 -57,95 16,39 -22,54 46,54 72,0 80,20 125,-9 58,-37 110,-50 176,-50 0,-107 121,-147 219,-147 0,-37 -34,-33 0,-84 23,-35 13,-51 24,-87 18,6 24,28 50,29 39,2 35,-4 80,-2 l 73,2 c 6,0 -41,-80 34,-84 37,-2 121,-6 136,-43 4,-26 1,-73 15,-93 12,-17 55,-23 61,-39 -45,-11 -51,0 -90,-29 -38,-29 -26,-68 12,-44 75,48 48,0 113,-37 92,-51 198,-90 304,-90 66,0 186,42 186,-41 l 1,-1 c 25,0 75,1 92,18 -4,5 -6,24 -6,32 103,0 155,8 193,-84 14,-35 30,-80 30,-119 0,-41 -36,-67 -36,-98 45,0 105,141 114,178 15,61 -39,96 -39,157 20,0 50,-58 64,-72 31,-31 78,-36 88,-76 24,-101 21,-30 79,-56 46,-34 165,-19 209,16 19,15 30,37 40,60 6,14 23,-3 33,-6 17,-5 53,-18 67,-27 l 28,-2 z m 2525,-4576 c 9,-76 37,-42 61,-96 18,-41 -9,-64 -22,-97 -5,-12 26,-65 26,-88 0,-78 91,-74 135,-136 124,-176 122,-418 399,-418 l 1,1 c 0,94 -94,249 58,288 1,3 4,4 5,7 12,4 -17,50 -21,56 l -109,173 c 47,0 24,52 1,67 -18,12 -76,21 -84,38 -13,27 19,48 -29,69 -46,20 -65,74 -103,87 -33,11 -64,2 -81,41 -23,51 12,24 -36,24 -12,0 -16,27 -36,26 -37,-2 -22,-72 -71,-45 -13,7 -59,29 -62,41 -9,1 -87,34 -72,-11 l 41,-27 z m -7057,2385 c -7,-1 -29,-15 -35,-21 -19,-18 -6,-9 5,-24 18,-24 -9,-43 -32,-37 -17,5 -39,0 -57,0 -18,0 -26,1 -38,-13 -12,-14 -32,-28 -51,-16 -11,7 -62,1 -64,11 12,3 33,19 46,24 48,19 88,55 136,67 17,4 83,49 85,32 z m 113,4 c -17,6 -40,3 -54,10 -13,6 -32,59 -24,72 6,9 31,4 38,1 4,-2 5,0 9,-4 5,-5 16,-32 21,-33 0,-7 6,-19 12,-21 l -1,-26 z m 71,80 c -13,-4 -28,-4 -38,4 -7,5 -11,7 -15,16 0,1 -2,1 -2,2 -2,3 -4,14 -2,18 3,9 17,10 26,10 7,0 13,-2 19,-5 8,-3 13,-9 18,-15 z m -206,-565 c -14,-3 -34,-27 -50,-27 -51,0 7,109 -43,113 -10,1 -26,-8 -33,2 -5,8 9,14 16,17 20,11 25,32 30,51 4,13 73,38 79,16 4,-15 5,-26 6,-41 1,-7 -2,-57 -7,-57 10,-31 1,-43 1,-74 z m -784,-813 c -16,12 -28,15 -48,15 -12,0 -62,6 -36,26 10,7 30,8 42,13 9,3 10,9 16,14 8,7 29,4 34,-4 9,-15 10,-36 -2,-49 l -6,-14 z m 151,-190 c -15,4 -30,4 -44,9 -10,4 -19,22 -23,30 -3,9 10,14 17,13 17,-2 30,-8 44,-18 6,-5 13,-9 17,-16 3,-6 7,-16 -2,-17 l -10,-2 z m 161,-288 c -11,10 -14,29 -24,40 -8,9 -24,12 -35,17 -9,4 -21,3 -30,8 -7,4 -17,15 -10,23 8,11 45,2 59,2 8,0 15,-1 22,-3 17,-5 63,0 70,-22 4,-15 -35,-37 -35,-59 l -16,-7 z m -362,-701 c 10,4 23,-25 23,-34 0,-14 2,-30 2,-44 l 1,-1 c 4,1 10,5 15,7 13,5 24,2 22,18 -1,6 -11,17 -15,23 -8,12 -10,25 -16,37 -5,10 -28,22 -38,13 l 8,-18 z m -419,4847 c -3,6 -4,12 -9,17 -12,12 -26,18 -40,28 -11,8 -32,16 -28,34 10,0 23,-12 32,-17 13,-7 26,-13 38,-18 5,-2 11,-10 13,-15 2,-5 4,-7 3,-12 -1,-5 -1,-6 2,-10 l -10,-7 z m 1507,1540 c -7,5 -15,8 -22,14 -17,14 -41,32 -41,57 1,0 1,0 2,1 7,0 22,-11 29,-15 12,-8 25,-16 38,-23 6,-3 11,-8 13,-14 1,-4 2,-8 1,-12 -4,-11 -8,-10 -18,-9 z m 4749,-9339 c -38,-8 -77,4 -117,4 -4,-12 17,-29 26,-39 6,-7 15,-24 27,-20 37,14 73,32 114,32 l 1,1 c 0,13 -14,28 -17,43 -3,15 -4,41 -10,55 -6,12 -14,11 -16,-2 -2,-13 4,-34 7,-47 l -13,-26 z m 1354,-397 c -17,-7 -54,-30 -68,-33 -1,-7 -6,-6 -6,-13 -3,-1 -4,-70 -7,-82 -44,-18 -23,-69 -23,-105 0,-47 -5,-77 -27,-117 -48,-88 -43,-123 15,-210 37,-55 70,-82 111,-129 78,-91 121,57 161,115 50,73 7,150 22,223 61,20 86,56 47,112 -50,72 8,36 35,76 7,11 -14,48 -7,69 5,17 40,110 -16,95 -43,-11 -36,2 -72,16 -43,16 -40,11 -91,9 l -73,-26 z m -714,-508 c -20,-24 -17,-76 -1,-102 8,-13 16,-34 21,-50 2,-7 6,-19 10,-26 3,-6 12,-16 13,-22 h 4 c 9,34 -5,74 -13,107 -3,13 -3,26 -4,39 -1,17 -6,33 -9,50 z m 1036,-262 c -22,-15 -29,-52 -46,-73 -17,-21 -72,-81 -68,-107 12,-71 -9,-79 -55,-129 -11,-12 -43,-48 -46,-61 -2,-7 28,-62 32,-63 v -2 c 13,0 121,103 135,121 11,14 18,38 26,54 7,14 34,13 47,24 21,16 48,161 30,180 -27,30 -5,36 13,62 28,39 -35,41 -58,32 l -10,-37 z m 154,-21 c 3,-12 6,-25 12,-37 5,-11 9,-22 15,-34 6,-11 24,-35 34,-16 7,13 9,29 13,43 1,3 3,19 1,22 -1,2 -14,7 -17,9 -10,6 -15,15 -22,23 -4,4 -9,5 -13,9 -6,4 -8,12 -13,16 l -10,-34 z m -2289,156 c 31,-21 22,-97 58,-136 29,-32 73,-101 -2,-112 v -2 c -2,-1 -1,-5 -1,-7 54,-22 22,-147 51,-155 50,-14 121,-13 144,-80 29,0 67,50 100,20 19,-18 77,-92 99,-95 6,-22 73,-44 94,-52 54,-22 21,29 15,65 -4,24 23,163 30,195 18,75 25,110 79,168 22,24 67,209 36,238 -67,62 -117,153 -224,119 -39,-12 -52,79 -77,106 -86,96 -198,-55 -114,-117 24,-18 104,-35 90,-72 -13,-35 -43,-82 -51,-116 -43,-11 -50,-50 -38,-85 61,0 85,-47 49,-97 -81,-114 -201,401 -327,247 l -10,-29 z m 635,-352 c -34,-49 1,-193 22,-244 18,-45 128,-68 174,-68 -24,-18 -56,-30 -81,-49 -79,-58 249,-307 296,-351 l 117,-111 c 26,-25 41,71 35,90 -25,83 -106,186 -146,269 -33,68 -49,151 -81,221 -25,52 -63,78 -88,124 -29,55 -31,135 -64,180 -29,39 -125,31 -156,-5 l -27,-57 z m -282,-501 c -11,-46 34,-141 68,-169 27,-22 91,-110 126,-110 18,71 -61,142 -78,212 -9,38 -65,172 -118,110 l 1,-43 z m 786,-383 c -15,-22 25,-35 33,-54 13,-29 16,-56 23,-84 11,22 17,42 26,65 10,27 25,47 -1,68 -7,6 -12,15 -19,20 -3,2 -13,3 -17,4 -11,3 -21,8 -33,11 l -11,-29 z M 6333,9116 c -16,-13 -22,-105 -6,-121 29,-29 77,-16 112,-10 60,10 75,-44 117,-44 42,0 74,-9 89,-51 h 4 c 6,17 26,28 30,51 -16,16 -141,14 -96,68 14,17 -14,49 -33,40 -16,-7 -84,13 -71,35 -20,33 16,75 -32,99 -20,10 -35,-8 -45,-22 -14,-19 -21,-16 -41,-16 -3,9 -23,18 -33,13 l 5,-44 z m 407,-301 c 26,-33 70,-22 91,-67 12,-27 22,-51 44,-72 37,-34 81,-58 118,-95 26,-26 60,-38 88,-59 12,36 -1,154 -40,172 -23,11 -22,1 -40,22 -35,42 -70,128 -145,107 -21,-6 -49,-23 -66,0 -19,26 -2,61 -50,22 z m 996,715 c 42,-25 105,-9 129,-39 8,-10 75,-127 79,-58 2,38 -30,68 -30,84 68,0 104,14 159,-30 20,-16 164,-136 135,-138 -40,-3 -68,18 -106,18 0,-32 41,-131 68,-61 20,52 80,-12 62,-61 -18,-50 -35,-25 13,-5 22,9 26,-5 24,-24 -11,-151 -297,-224 -412,-247 -63,-13 -60,-72 -79,-127 -20,-58 -92,-77 -103,-145 -8,-44 -118,-71 -158,-37 -71,61 -138,1 -77,124 -2,2 -88,-49 -142,-32 -11,12 -17,48 -5,61 11,11 26,3 39,7 28,9 -26,59 -36,67 -10,7 -55,15 -50,29 8,23 59,26 78,34 28,12 62,16 94,16 44,0 65,31 97,56 8,8 27,20 36,23 v 4 c -6,1 -10,6 -15,7 v 2 c 45,11 17,57 80,27 30,-14 94,-50 124,-50 40,159 -169,109 -171,155 -4,74 -99,107 -95,184 4,62 133,-13 162,-27 17,-8 108,-44 107,-32 -5,73 -79,105 -147,110 -51,3 -114,106 -162,10 -2,0 -2,1 -4,1 0,77 -23,78 -78,27 -48,-46 -81,-38 -125,2 -42,68 8,85 41,132 30,42 35,49 86,28 37,-15 52,-31 96,-38 26,-4 50,-1 75,4 32,5 60,-32 99,-32 38,0 46,30 86,-11 l 24,-20 z m -555,-102 c -8,14 -29,16 -29,35 0,15 -5,24 -16,33 -23,19 -16,49 17,34 5,-2 10,-8 13,-12 5,-7 6,-17 9,-26 4,-12 12,-29 13,-41 z m 292,-375 c -16,2 -25,-20 -46,-15 -15,4 -30,10 -46,12 -18,3 -72,-25 -79,5 -4,20 40,25 55,29 32,10 66,20 99,26 16,3 33,3 47,6 14,3 20,-1 32,-1 4,-11 -32,-44 -45,-52 l -16,-10 z m 9,-1024 c -20,0 -48,-43 -39,-63 6,-14 24,-18 39,-18 40,0 31,-30 36,-59 2,-8 0,-27 12,-27 14,0 27,-6 40,-6 7,36 1,94 -10,127 -3,9 -6,16 -6,26 0,13 9,22 -2,32 -16,13 -36,10 -56,4 l -15,-15 z m -62,95 c -7,3 -13,1 -21,-1 -7,-2 -16,3 -21,7 -8,8 -1,29 9,33 8,4 14,4 23,2 15,-2 23,-22 33,-32 l -23,-10 z m -311,-451 c 53,-19 114,-141 171,-116 24,11 60,32 79,51 45,46 -6,19 -6,62 67,17 59,38 43,93 -12,39 -34,50 -54,83 -17,30 -24,55 -71,34 -45,-20 -46,-88 -81,-112 -27,-19 -73,-51 -94,-76 l 12,-20 z m -212,-128 c 33,0 65,-21 96,-21 9,0 28,-3 34,0 13,6 49,25 9,28 -17,1 -40,-2 -55,2 -20,6 -29,24 -46,32 -8,4 -23,5 -33,5 -15,0 -16,-17 -16,-29 z m 893,-556 c 122,94 146,61 274,-5 34,-18 178,13 176,35 -6,69 10,123 -52,166 -22,15 -47,51 -69,60 -57,22 -105,-33 -58,61 15,29 -39,103 -71,105 -27,2 -95,132 -128,172 -82,103 -224,81 -125,-74 44,-69 -4,-153 83,-197 l 152,-78 c -50,0 -121,24 -181,24 -48,0 -37,-83 -66,-127 -5,-7 -70,233 -95,243 -48,18 -34,-110 -44,-143 -23,-74 -39,-11 -54,-2 -39,22 -71,-15 -119,12 -30,17 -70,22 -97,44 -36,29 19,-72 21,-84 4,-27 -81,19 -139,-63 l -101,-145 c -82,-118 6,-208 113,-128 110,82 -65,-100 -91,-83 -34,22 -54,-18 -58,-63 -8,-76 -12,-32 -43,-17 -36,18 -17,-63 -47,-63 -43,0 -22,92 -24,133 -4,98 -71,31 -133,-16 -73,18 -118,-50 -118,-115 0,-111 -36,-61 -94,-61 0,-17 3,-99 7,-99 30,0 65,33 92,33 -8,-34 -34,-63 -34,-100 0,-211 146,107 173,133 62,-83 -10,-103 -10,-183 25,0 34,-23 56,-1 9,9 31,39 40,39 0,-58 20,-49 -28,-91 -17,-15 -30,-63 -57,-63 -55,0 -18,-86 -10,-129 16,-83 63,10 90,50 38,56 8,60 75,97 46,26 81,73 99,121 4,10 32,-10 44,-15 20,-7 10,-57 23,-61 0,27 83,88 103,88 -15,-74 -139,-148 -67,-210 53,-45 -1,-28 -22,-55 -13,-15 -7,-79 -21,-106 -4,-17 -20,-38 -16,-55 85,-22 114,-54 114,-138 l 1,-1 c 22,0 69,-41 72,-11 5,65 83,86 83,158 0,55 51,10 75,45 86,124 50,363 50,512 -6,32 -6,33 -33,50 -32,20 55,25 55,68 0,43 -24,68 13,105 46,46 -26,113 56,100 66,-11 38,81 38,113 14,0 32,-20 50,-20 26,0 31,17 55,23 l 21,12 z m 40,-130 c -10,1 -22,-8 -33,-11 -15,-3 -41,-3 -56,1 -10,3 -17,14 -19,24 -5,20 29,41 43,51 11,8 44,28 46,40 14,0 34,12 44,-6 11,-20 4,-44 4,-67 l -28,-33 z m -71,-484 c -6,8 -3,16 -10,23 -16,16 -20,3 -18,35 1,18 -8,67 -30,67 -26,0 -21,-24 -54,-20 -6,40 -22,73 -13,118 8,39 1,81 1,121 0,12 -5,25 -1,38 3,8 14,16 18,24 8,16 5,53 32,51 9,-1 55,-31 69,-37 43,-16 -28,-108 -34,-133 -9,-36 -24,-72 -10,-108 20,-49 64,-72 64,-132 0,-30 37,-67 -9,-78 l -6,29 z m -1,-91 c 7,-28 11,-53 16,-80 3,-20 0,-57 28,-57 2,5 6,5 6,16 0,19 1,39 -2,57 -4,19 -5,40 -7,60 -2,13 -5,25 -5,39 -2,1 -2,2 -2,4 -10,0 -26,4 -32,-6 l -1,-32 z m 601,2838 c -5,-22 4,-59 22,-73 17,-13 40,-25 55,-41 21,-23 33,-52 52,-72 14,-14 60,-50 78,-54 0,25 -31,49 -45,67 -25,34 -49,65 -79,95 -21,21 -30,39 -51,58 z M 5513,7927 c -8,-34 -35,-83 1,-107 49,-33 68,-111 109,-152 18,-18 21,-52 21,-77 0,-32 16,-31 49,-39 0,43 -48,83 -1,121 89,72 -27,89 -50,154 -10,26 -35,19 -49,44 -12,22 -19,39 -36,60 l -44,-2 z m -117,288 c 3,-16 3,-38 -1,-54 -5,0 -9,1 -13,1 -8,0 -13,5 -19,9 -8,4 -24,4 -26,16 -1,8 -2,13 1,21 2,5 2,9 4,15 2,9 2,18 4,27 4,17 30,2 40,-1 l 11,-33 z m 503,-749 c -7,4 -13,5 -22,2 -6,-2 -20,-3 -24,1 -6,6 -6,8 -6,18 0,6 0,12 0,18 1,10 8,22 9,32 1,10 -1,38 18,30 10,-4 9,-12 12,-21 6,-16 7,-32 15,-48 l -1,-34 z m 207,-1589 c 80,45 160,-7 100,107 -46,86 -19,68 -108,98 8,32 50,30 41,62 -8,30 -15,64 -33,90 -25,38 -38,157 -47,205 -13,66 -71,-1 -56,57 6,25 -19,43 -15,52 22,45 66,111 5,156 -13,10 -84,0 -71,26 17,31 61,63 66,97 -19,43 36,62 34,91 -2,25 -59,44 -72,73 -14,31 -22,72 -43,100 -31,42 -39,21 -2,52 36,31 42,128 19,167 -10,16 49,70 57,96 26,79 -55,20 -79,13 -61,-16 -156,55 -176,-40 -14,-69 -18,-142 -40,-210 -6,-20 -12,-44 -26,-61 -5,-6 65,-226 67,-258 2,-39 -9,-78 -32,-106 -53,-65 12,-40 38,-97 16,-26 26,-42 19,-68 -27,0 -55,-96 -34,-115 80,-72 30,-195 -49,-240 -23,-13 -146,-102 -139,-111 36,-42 43,-124 81,-177 42,-57 51,-12 102,-2 36,6 59,-36 81,-57 39,-37 57,69 106,23 27,-25 105,-73 142,-40 l 61,16 z m -112,-108 c 7,-12 30,-46 45,-46 14,0 41,0 44,17 2,13 4,16 -9,24 -8,5 -18,9 -24,15 -10,9 -12,18 -24,23 -16,7 -36,22 -49,0 z m -54,-112 c -8,5 -17,-15 -18,-22 -3,-21 9,-23 24,-31 9,-5 29,-15 40,-12 16,4 24,36 27,51 3,12 -2,13 -13,15 -12,3 -29,4 -42,4 l -18,-4 z m 348,-427 c -18,6 -37,12 -47,30 -7,13 -17,19 -29,26 -12,6 -23,-1 -28,13 -2,7 -9,67 8,48 13,-14 21,-35 43,-37 17,-1 17,2 27,15 14,18 35,9 38,-12 3,-22 3,-42 3,-63 l -16,-19 z m 932,-266 c -81,105 -48,41 -129,61 -19,78 23,165 -100,183 -20,82 -48,38 -101,38 -2,-13 -22,-26 -26,-37 h -2 c -23,70 -112,-10 -74,83 21,50 57,147 -24,107 -33,-16 -18,-44 -27,-71 -35,0 -81,-35 -112,-35 -12,23 -54,62 -4,74 3,20 30,73 44,89 38,42 -19,21 -43,35 -19,12 -23,30 -36,41 -13,11 -34,-30 -56,-12 -41,33 -124,234 -191,234 0,-1 -5,-8 -6,-9 -4,-17 -34,-41 -46,-57 l -124,-147 c -33,-39 -66,-131 -7,-72 49,50 97,12 129,-34 22,-32 75,-63 81,-96 28,-148 147,-33 150,-96 3,-77 -128,-81 -186,-93 -68,-14 -118,-34 -151,-96 -27,-50 -15,-38 -67,-61 -101,-45 -20,-78 56,-46 12,5 68,35 68,10 0,-18 -31,-97 -33,-96 -14,-32 -98,-54 -69,-118 16,-30 -15,-55 -15,-83 0,-19 28,-44 33,-68 5,-24 0,-60 9,-82 10,-25 89,21 55,-49 -11,-22 14,-60 24,-84 29,-69 38,17 107,5 49,-9 74,27 84,67 12,0 49,-17 64,-21 0,-31 -19,-79 -38,-105 -8,-11 4,-54 12,-65 11,-13 66,70 78,84 13,17 61,69 66,87 2,1 3,1 4,2 12,0 33,1 46,-2 0,-10 -76,-109 -86,-136 -46,-127 48,-136 141,-190 59,-34 43,-40 112,-37 38,2 112,-51 131,-83 39,-16 98,-125 136,-161 65,-61 174,-90 232,-163 24,-30 37,-119 78,-30 16,33 77,74 80,106 4,38 -16,32 1,78 24,64 -136,207 16,245 v 6 c -53,13 -94,138 -117,144 -49,13 -36,10 -50,55 -13,41 -56,1 -56,55 -27,66 4,137 85,108 39,-14 64,-35 81,-74 15,-34 53,-35 68,-60 8,3 37,-12 38,-5 2,16 -32,70 -38,94 -18,78 -147,211 -182,71 l -1,-1 c -27,0 -40,-12 -40,22 0,81 -102,-42 -83,23 8,28 28,106 6,130 -9,10 -60,45 -49,51 31,18 73,219 56,253 l -4,34 z m 7216,18458 c -26,-14 -51,-23 -77,-40 -23,-16 -44,-74 -75,-66 -178,46 -86,7 -73,-57 12,-60 145,-45 195,-69 56,-28 100,-42 144,-93 48,-56 55,0 107,26 42,21 74,23 122,23 26,0 89,101 109,124 43,49 -64,60 -83,65 -56,13 -34,35 -46,74 -22,69 -70,43 -122,91 -77,72 -82,-9 -151,-39 z M 9670,22162 c -1,-8 -5,-15 -5,-22 0,-6 0,-14 -1,-20 -1,-9 -7,-30 5,-35 10,-4 12,10 12,17 0,12 5,27 8,40 1,4 4,9 3,14 -2,8 -9,15 -18,16 z m -2370,2848 c 11,-2 14,-34 18,-42 3,-7 60,9 39,30 -7,7 -17,15 -22,23 -6,12 -35,7 -45,7 z M 11809,2629 c -48,-26 -15,-97 -84,-118 -16,-5 -45,-4 -58,-15 -23,-18 -31,-80 -69,-63 -25,11 -73,26 -89,48 -17,23 -32,70 -32,99 0,22 62,14 80,35 11,13 11,56 16,76 9,34 64,67 85,102 12,21 18,59 44,57 16,-1 68,28 71,15 4,-25 -24,-35 -1,-66 14,-19 46,-24 57,-45 13,-25 -9,-66 -9,-93 z m 95,152 c -10,9 -6,5 -17,7 -12,2 -20,6 -33,6 -20,0 -41,-6 -55,7 -4,4 -9,15 -10,21 -1,10 18,27 27,33 12,8 18,-2 27,-7 12,-7 31,-6 45,-10 15,-4 20,-19 23,-35 z m 68,-118 c -11,0 -19,5 -29,7 -20,5 -36,23 -41,41 -4,14 6,29 13,39 5,7 28,6 36,7 9,1 19,3 28,-2 5,-3 9,-11 11,-16 2,-8 -8,-11 -17,-15 -6,-3 -17,-12 -23,-12 0,-7 -3,-9 2,-16 6,-7 10,-14 18,-18 l 1,-16 z m 294,41 c -11,7 -15,-6 -29,-4 -21,4 -28,30 -52,32 -10,1 -19,-15 -29,-18 -9,-3 -48,3 -61,4 -13,1 25,37 28,49 -74,25 5,52 5,99 0,15 -10,25 -4,41 5,13 18,23 29,32 26,21 8,46 54,44 26,-1 20,-50 21,-67 1,-25 -8,-33 -13,-54 -7,-26 12,-44 24,-62 13,-20 25,-40 30,-63 l -2,-32 z m 5,-111 c -9,4 -18,6 -28,10 -7,3 -20,6 -27,11 -15,10 -36,12 -46,26 -3,3 -2,11 1,13 9,6 28,16 40,13 10,-2 20,-5 30,-5 12,0 22,12 34,5 10,-5 3,-13 1,-21 -2,-8 0,-16 4,-22 l -10,-30 z m -219,-645 c 21,55 53,77 41,140 -15,84 -70,-41 -67,35 2,36 -37,53 -69,61 0,37 115,52 144,41 53,-19 93,-31 144,20 25,25 -9,38 -7,69 6,84 97,-29 109,-29 21,0 54,-19 46,18 -7,35 -41,19 -41,62 0,40 -4,66 35,79 46,15 1,209 -62,102 -37,-63 -89,-18 -122,-51 -50,-50 -41,-103 -56,-165 -16,4 -46,77 -78,89 -39,15 -72,1 -111,27 -31,21 -57,10 -91,12 -74,4 -42,2 -77,-49 -28,-40 -38,-85 -6,-130 21,-29 11,-51 23,-82 0,-16 -31,-114 -52,-104 -20,10 10,107 10,126 -16,0 -63,-58 -72,-38 -11,24 52,108 35,136 -13,22 -61,39 -85,39 -56,0 -44,-18 -54,-60 -13,-57 5,-89 11,-141 3,-23 15,-46 16,-69 2,-43 -13,-86 -13,-132 26,-50 9,-72 71,-101 33,-16 70,-29 105,-39 60,-18 72,23 123,46 19,9 42,13 62,21 24,9 41,26 63,37 l 26,28 z m 460,378 c -11,15 -34,22 -49,30 -14,8 -74,5 -58,29 17,26 27,54 34,83 l 1,1 c 7,0 12,-7 18,-9 23,-7 46,-1 68,-6 1,-5 4,-9 5,-15 2,-18 -10,-40 -9,-60 1,-8 6,-19 9,-26 6,-15 0,-19 0,-32 l -19,2 z m -120,-331 c -17,1 -21,21 -29,34 -12,20 -26,44 -52,44 -22,0 -56,-24 -62,-43 h -2 c 0,21 -5,28 -13,46 -4,9 -21,33 -7,43 13,9 30,11 45,15 30,6 41,14 63,33 17,14 34,11 45,-9 14,-25 -7,-53 -7,-76 0,-8 10,-15 13,-23 6,-11 10,-25 16,-37 l -9,-28 z m 366,-90 c -20,9 -95,15 -84,-21 7,-23 10,-18 29,-30 11,-7 3,-18 -7,-18 -10,0 -31,3 -33,-10 -3,-24 -27,-65 -34,-20 -3,19 5,57 10,76 15,55 -20,17 -46,48 -9,11 -30,58 -33,73 -5,23 26,19 32,1 9,-29 31,-56 67,-54 38,2 38,44 30,74 14,-4 25,-19 44,-22 8,-1 61,-2 45,-17 -12,-11 -35,-46 -16,-61 l -4,-20 z m -625,-188 c -24,24 -64,33 -88,1 -20,-27 4,-43 -34,-54 -36,-11 -29,6 -40,32 -11,24 -32,31 -30,62 1,29 54,80 77,99 26,21 45,26 78,20 16,-3 44,0 50,-17 10,-29 -9,-60 2,-82 8,-15 38,-45 18,-65 z m 112,94 c 0,-8 -2,-18 -5,-26 -3,-8 -2,-14 -9,-21 -8,-9 -21,-18 -34,-9 -10,7 -13,26 -9,37 3,9 12,17 16,27 4,12 5,25 9,37 1,4 2,11 7,11 9,0 18,-14 21,-21 z m 219,-76 c -9,-41 6,-74 17,-110 6,-21 19,-17 0,-34 -11,-10 -19,-32 -22,-46 -33,0 -19,76 -24,99 -3,12 -8,64 -13,69 -11,11 -41,-1 -49,-13 -13,-23 -7,11 -5,18 8,21 20,34 29,52 6,12 9,43 9,56 20,0 40,2 60,2 0,-23 -5,-47 -5,-72 l 4,-22 z m -237,-356 c -24,-10 -67,-34 -85,-52 -9,-9 18,-15 21,-28 3,-15 -1,-36 -1,-50 -9,0 -41,48 -56,55 -33,16 -58,-6 -89,-6 0,15 39,44 44,61 13,43 -16,63 27,93 24,17 46,70 56,21 13,-63 63,-42 99,-12 33,28 31,63 41,105 7,0 15,-32 23,-41 15,-18 43,-35 9,-59 -23,-15 -44,-44 -54,-68 l -34,-17 z m 61,-110 c -11,-13 -11,-49 -1,-61 12,-15 9,-32 6,-50 l -2,-1 c -22,0 -27,25 -36,40 -6,10 -15,18 -21,28 -6,10 -2,13 0,22 26,4 19,95 54,49 l 1,-27 z m 652,98 c -51,15 -120,132 -169,132 -103,0 -1,-57 -1,-111 -22,6 -29,26 -61,26 -15,0 -5,32 -6,46 -3,29 -19,28 -41,37 -40,16 -46,45 -61,78 -10,24 -49,30 -49,48 0,11 -4,85 10,62 20,-34 68,-127 116,-111 23,8 26,-10 44,-18 34,-16 41,28 71,-17 18,-27 29,-27 55,-44 33,-21 34,-51 79,-51 69,0 31,-6 21,-48 l -6,-28 z m -21,-166 c 2,-6 5,-10 6,-16 3,-11 4,-41 21,-41 12,0 22,-2 33,-6 4,-2 22,-8 22,-1 -3,1 -9,9 -12,11 -8,5 -23,13 -23,23 -1,11 18,36 10,46 -18,20 -30,-2 -51,4 l -5,-20 z m 3674,2150 c -5,-14 -14,-25 -26,-34 -7,-5 -25,-16 -19,-27 4,-8 14,-18 19,-26 5,-8 11,-15 18,-21 11,-10 33,-2 42,9 21,27 8,51 8,80 0,9 1,18 1,27 0,19 -26,7 -36,6 z m 1763,-1738 c 13,-43 59,-59 78,-101 21,-44 -64,-39 -57,-46 8,-10 44,-11 58,-18 24,-13 -9,-50 -23,-62 -2,-2 107,25 63,-48 -10,-16 -54,-35 -1,-44 36,-6 27,-18 -2,-32 l -64,-32 c -36,-18 -37,79 -57,86 0,-18 0,-38 -3,-55 -1,-6 -1,-53 -10,-48 -22,12 -46,58 -55,80 -9,21 -46,51 -48,66 -2,12 16,30 18,44 2,16 1,33 0,49 -2,49 -48,78 -28,124 4,22 -27,2 -20,23 4,13 9,29 2,42 -6,12 -13,17 -7,32 16,36 22,29 53,14 20,-10 35,-12 57,-2 9,4 23,15 32,15 12,1 48,-12 55,-20 9,-11 -43,-28 -45,-48 z m -215,431 c 18,-29 15,-54 -7,-77 -11,-11 -58,-38 -47,-48 10,-10 34,-10 45,-23 18,-21 -1,-36 -15,-49 -11,-10 -40,-78 -40,-92 l 1,-1 c 20,0 33,41 47,52 9,8 72,36 54,4 -8,-14 -5,-37 -5,-53 0,-25 -2,-45 -6,-69 -30,-56 17,-127 -70,-143 -19,-4 -28,14 -52,10 -72,-14 -53,23 -70,80 -11,36 2,83 -14,116 -10,21 -34,0 -41,31 -8,37 -39,75 -50,116 -16,63 22,77 22,133 1,24 1,53 5,76 3,17 16,35 16,51 3,73 43,83 96,115 1,0 2,-1 3,-1 2,-9 -14,-26 -5,-35 6,-6 52,16 66,16 40,0 65,-61 50,-94 -5,-12 -39,-48 -19,-58 19,-10 37,-22 38,-45 z m 148,-39 c -4,-25 -19,-49 -23,-75 -2,-13 -26,-42 -23,-48 4,-7 26,-32 32,-32 29,0 37,37 67,-2 11,-14 51,1 67,4 0,12 6,31 10,43 4,12 18,24 21,33 9,0 14,-21 24,-27 8,-5 23,-13 33,-13 l 1,1 c 0,39 -30,70 -30,105 0,54 -51,7 -67,-11 -16,-18 -27,-11 -47,-19 l -23,-9 c -30,-12 28,52 31,58 7,13 -47,42 -64,9 l -10,-16 z m -888,274 c 60,0 35,14 35,62 0,47 34,-10 38,-26 2,-7 12,-52 19,-49 0,15 9,91 17,101 23,29 -18,62 10,99 18,24 31,11 54,16 4,14 -10,34 -9,51 1,14 11,34 -11,31 -39,-5 -61,19 -58,60 5,63 113,75 113,10 0,-27 24,-84 1,-101 0,-8 -12,-24 -5,-32 10,-11 25,-16 36,-31 22,-29 9,-77 30,-110 17,-26 37,-32 15,-66 -22,-10 -12,-11 -12,-32 0,-25 24,-75 9,-93 -11,-13 -41,-34 -18,-49 41,-27 41,-16 41,-66 0,-49 -58,-69 -8,-86 25,-8 20,-41 24,-62 3,-18 10,-77 -16,-63 -63,33 -25,24 -35,75 -23,0 -71,-21 -98,-26 -11,-2 -51,55 -50,69 1,35 14,35 -13,66 -16,18 -56,48 -56,74 0,30 49,82 49,102 -10,0 -90,-82 -93,-91 -4,-11 0,-48 -16,-48 -14,0 -42,44 -49,56 -10,19 -13,67 -13,89 -19,9 -30,-23 -49,-7 -17,15 -15,26 -18,46 -2,17 -9,27 6,40 21,18 43,-15 61,-20 19,-5 40,-2 58,6 l 13,5 z m 465,1434 c 18,-40 -82,-88 -23,-134 14,-11 33,-6 45,-13 0,-10 -13,-28 -18,-37 -7,-12 -7,-26 -7,-40 0,-35 -15,-62 -15,-99 9,-7 23,-29 25,-40 2,-12 -7,-19 0,-30 18,-31 54,-22 54,-66 0,-21 4,-44 1,-65 -4,-22 -40,-28 -32,-49 15,-36 33,-39 -5,-69 -17,-14 -24,-18 -37,-36 -1,-15 -17,-32 -6,-46 9,-11 18,-17 26,-29 24,-38 15,13 44,23 16,5 31,-16 33,-29 5,-36 42,-22 46,-38 11,-39 -31,-24 -51,-45 -21,-22 58,-67 78,-67 18,0 6,-36 9,-52 5,-26 -37,-4 -57,-12 -34,-14 -34,-23 -76,-23 0,-15 13,-39 22,-51 32,-8 102,27 115,-21 5,-18 8,-69 8,-87 -31,0 -41,2 -63,26 -29,32 5,-36 10,-43 17,-27 96,-139 92,-161 -35,0 -83,66 -90,96 -7,30 -81,121 -81,40 0,-52 -40,-28 -71,-43 -8,-4 13,-36 16,-40 14,-22 50,-83 23,-100 -33,-20 -18,-37 -26,-69 -13,-52 -41,-7 -60,15 -13,16 -20,1 -33,1 -14,0 -13,27 -19,36 -33,43 51,47 27,69 -43,38 -80,-4 -93,79 -8,49 -45,113 11,147 40,31 23,14 -2,37 -28,26 -29,71 -67,96 -51,33 -84,-34 -125,-34 0,14 18,56 -8,60 -17,3 -37,-15 -58,-14 -18,1 -38,43 -56,55 -46,29 -66,-17 -108,-27 -22,6 -161,19 -107,66 22,19 13,30 5,54 -12,36 -2,91 35,107 15,6 32,9 38,25 34,83 69,-22 92,46 10,31 29,15 43,-4 14,-19 36,-34 48,-51 2,0 3,-1 5,0 0,44 -25,45 -50,71 -9,9 -14,30 -10,42 9,27 29,15 49,22 29,23 6,34 48,45 10,3 42,37 44,46 h 2 c 2,-12 -8,-78 14,-77 11,1 44,47 50,16 5,-23 -1,-53 17,-70 17,-17 33,-2 51,-8 32,-11 55,-62 75,-87 26,-34 15,10 15,26 0,40 14,68 14,108 0,41 -12,92 -4,131 -3,16 -16,50 -12,65 l 37,-31 c 20,27 -15,136 -23,166 l -26,99 c -9,34 -33,64 -40,99 -5,47 16,84 16,130 0,21 -33,17 -46,21 -21,6 12,68 -26,79 -18,5 -25,1 -15,23 11,22 14,81 39,62 54,-42 67,-2 88,44 3,6 16,29 25,24 2,-1 -6,-34 -6,-40 0,-7 16,-30 19,-41 11,-37 -12,-79 -1,-110 20,-57 15,-82 13,-140 -2,-58 50,-12 78,-16 l 7,-15 z m 130,-439 c 13,-21 -25,-63 -25,-90 0,-10 -5,-39 13,-27 12,8 24,23 40,26 14,3 52,-44 46,3 -4,31 -6,34 25,40 18,3 18,18 39,21 20,2 20,-1 20,21 0,14 1,42 -19,27 -23,-17 -29,-64 -52,-16 -9,18 -19,31 -16,53 5,29 -16,78 -40,33 -7,-13 -10,-23 -23,-32 -15,-10 -26,-24 -12,-43 l 4,-14 z m 193,-545 c -18,9 -43,1 -57,-12 -17,-16 10,-24 15,-43 4,-14 10,-35 20,-44 10,-9 22,-10 32,-21 8,-9 15,-22 23,-29 8,-6 14,-4 24,-4 10,0 19,-4 29,-6 25,-6 30,-7 13,16 -15,21 -36,40 -53,61 -15,19 -24,45 -41,63 l -4,18 z M 7409,7348 c -6,-11 -13,-26 -11,-38 2,-13 9,-5 18,-6 10,-2 15,-14 22,-20 11,-9 34,-17 46,-7 16,13 8,18 -9,18 -26,1 -12,29 -12,42 0,5 -6,16 -10,19 -12,8 -22,6 -36,3 l -7,-11 z m -3259,5581 c -3,-12 -8,-26 -15,-37 -8,-11 -18,-21 -26,-32 -3,-5 -11,-21 -19,-13 -7,7 -14,5 -23,7 -8,2 -1,15 0,20 1,10 4,14 -6,20 -27,17 -20,63 11,69 11,2 23,12 33,13 4,0 17,2 20,0 8,-4 16,-15 22,-21 l 3,-25 z m 1479,-193 c -6,-5 -13,-15 -16,-22 -7,-16 -13,-27 -32,-27 -14,0 -26,6 -35,17 -7,8 -9,19 -7,29 3,17 21,20 36,18 8,-1 18,2 26,3 11,2 23,1 33,-3 z"
   id="path997" />

  <path
   class="fil0 str1"
   d="m 6984,13915 c 23,-32 38,-69 41,-107 4,-47 -38,-94 -38,-151 0,-63 20,-121 88,-138 7,27 -16,63 10,88 114,114 264,-80 306,-4 29,52 -49,87 -63,134 -9,29 -36,117 -36,143 50,0 85,-28 66,52 -12,52 -177,84 -120,167 29,43 -46,104 -83,72 -32,-28 -44,-66 -96,-66 -69,0 -67,78 -152,-7 -79,-79 24,-119 72,-173 l 6,-10 z m -2132,293 c 28,-20 51,-44 81,-61 21,-12 50,-10 74,-22 32,-17 63,-49 102,-44 31,4 98,-16 123,3 0,28 -74,63 -27,78 48,16 61,4 43,60 -26,77 118,135 96,222 -8,2 -26,-33 -33,-38 -59,-46 -136,-95 -184,-156 -44,-56 -186,-32 -250,-32 l -25,-9 z m -1900,2570 c -22,-17 -25,-44 -46,-60 -29,-22 -57,-49 -90,-57 -32,-8 -109,11 -122,-39 39,-8 104,11 148,11 -45,-79 27,-56 96,-71 13,-3 57,-34 64,-23 33,46 77,74 52,135 -33,81 182,102 203,182 9,32 39,53 41,89 1,21 25,108 12,122 -20,20 -78,-42 -85,-63 -12,-36 26,-146 -26,-169 -34,-15 -59,-13 -97,-13 -43,0 -91,-28 -131,-44 l -21,1 z m -131,-445 c 14,-19 32,-34 44,-55 15,-26 37,-60 44,-87 9,-37 14,-39 54,-39 0,30 -9,60 0,90 16,53 -13,67 -27,113 -7,23 -3,52 -11,76 -8,24 -24,32 -47,34 -50,5 -32,-47 -64,-57 -8,-2 -48,-7 -44,-20 5,-13 31,-20 34,-29 l 18,-27 z m 283,-907 c -19,-16 -29,-7 -54,-7 -7,0 -22,-4 -26,-9 -7,-9 3,-14 7,-22 8,-19 -32,-67 -44,-80 -29,-35 56,-4 36,-40 -6,-12 -38,-14 -47,-33 -4,-8 2,-28 -2,-41 -10,-34 27,-35 52,-36 10,0 15,50 18,62 10,0 27,-11 33,-1 4,7 0,25 1,34 0,6 9,21 4,27 -4,6 -24,1 -32,6 -8,5 19,36 24,40 21,14 47,36 61,57 19,27 20,29 -21,41 l -11,3 z m 91,44 c -6,-7 -12,-17 -16,-24 -4,-7 -6,-12 -15,-12 -7,0 -12,3 -18,4 -12,1 -29,0 -33,14 -3,9 6,16 13,19 8,5 12,9 13,18 2,12 0,20 15,16 6,-1 13,-5 19,-7 7,-3 13,-11 21,-13 z m 1555,-313 c 14,-36 -20,-88 -29,-122 -4,-17 -3,-46 21,-35 22,10 36,4 60,1 21,-3 25,-4 25,16 0,14 -7,26 -7,40 0,45 -25,83 -29,127 0,5 -5,44 -8,47 -21,21 -25,-43 -26,-51 z m -307,2650 c -26,39 -27,58 2,91 23,27 -21,50 -5,75 15,24 10,42 -18,54 -49,21 -16,14 -16,49 -27,0 -108,-46 -120,2 -16,63 -45,84 -78,136 -3,4 -15,33 -18,33 -6,-30 -38,-71 0,-95 14,-9 63,-69 30,-76 l -87,-18 c 0,-8 61,-23 71,-29 26,-15 44,-31 75,-40 74,-22 100,-23 74,-108 -15,-48 -21,-61 26,-68 22,-4 23,-23 37,-34 12,-13 19,-18 19,-37 0,-17 -5,-26 -8,-43 -2,-12 -6,-34 0,-45 5,-9 13,-5 19,0 20,14 41,8 64,6 6,-1 48,-8 39,7 -7,12 -21,16 -31,23 -12,9 -37,27 -41,41 -6,19 -12,27 -21,44 l -10,29 z m 533,-1249 c 17,-23 25,-33 55,-41 7,-2 55,-6 49,-16 -10,-19 -79,-29 -92,-20 -9,6 -62,46 -67,27 -5,-18 -60,-75 -26,-83 -6,-24 -57,-44 -57,-76 0,-31 -21,-71 -7,-98 7,-15 26,-40 22,-57 -38,7 -40,45 -50,75 -15,48 -18,42 -4,88 11,37 -10,31 -23,61 -6,14 29,31 38,35 19,10 -1,37 32,37 23,0 15,46 13,65 -3,21 -1,110 13,122 19,18 22,13 28,41 19,-2 37,-13 56,-14 7,-1 34,-10 29,-21 -6,-14 -27,-27 -25,-43 1,-11 8,-20 13,-29 5,-10 2,-23 2,-35 l 2,-18 z m 4790,-9384 235,-300 c 20,-25 6,-51 17,-69 4,-6 30,-18 40,-29 20,-23 75,-128 108,-128 0,-1 0,35 -5,52 -13,53 -78,106 -105,157 -21,41 -62,82 -88,123 -37,60 -93,107 -133,166 -6,9 -92,143 -92,74 l 22,-46 z m -119,2662 c -7,11 54,112 62,131 30,74 24,178 30,258 2,28 16,18 24,-1 9,-19 13,-14 19,0 10,22 36,-6 52,-15 11,-7 60,-20 62,-32 8,-1 -20,-33 -22,-37 -16,-31 -38,-71 -60,-99 -15,-19 -43,-22 -63,-36 -41,-28 -21,-75 -47,-105 -22,-26 -28,-59 -51,-83 z"
   id="path999" />

  <g
   id="_2384980620016">
   <path
   class="fil2 str2"
   d="m 16827,21477 c -13,-7 -24,-17 -38,-22 -19,-7 -37,-55 -50,-70 -18,-20 -44,-43 -69,-52 -80,-27 -137,48 -216,34 -18,-3 -49,-16 -57,-16 -46,-2 -52,-20 -106,-13 -29,4 -77,5 -101,23 -45,34 23,173 -34,190 -36,11 -77,11 -115,23 -68,20 -107,-2 -151,-55 -47,-57 -111,-135 -175,-171 -60,-33 -134,8 -192,-46 -30,-28 -89,-147 -130,-116 -54,40 -74,54 -142,58 -77,5 -37,112 -92,139 -38,19 -52,29 -79,62 -12,15 -27,27 -44,51 -16,24 -35,46 -68,26 -17,-11 -58,-15 -66,-33 -9,-19 -27,-39 -33,-58 -11,-39 -18,-66 -38,-101 -9,-16 -41,-89 -35,-103 18,-39 9,-90 -38,-90 -35,0 -92,14 -122,-8 -41,-31 -80,-76 -71,-132 4,-28 19,-50 39,-68 13,-12 25,-19 34,-35 7,-12 12,-36 15,-47 7,-25 5,-48 -7,-72 -7,-14 -30,-53 -39,-64 -4,-5 -4,-11 -8,-13 -46,-32 -118,-65 -153,-12 -31,47 -32,101 -22,179 18,143 -201,136 -305,167 -200,60 -439,189 -597,-13"
   id="path1001" />

   <path
   class="fil2 str2"
   d="m 12983,20747 c 17,-44 -99,-32 -73,-105 8,-22 73,30 81,37 75,54 55,-67 79,-100 45,-60 169,16 139,-96 -13,-49 12,-98 34,-141 36,-69 90,-63 86,-165 -1,-43 -33,-106 -46,-147 -20,-63 -13,-145 -36,-207 -21,-57 8,-104 5,-155 -3,-41 -28,-80 -30,-124 -4,-74 28,-137 -1,-210 -16,-39 -140,-194 -139,-204 1,-9 2,-3 -2,-8 -20,-26 -66,-142 -90,-150 -183,-59 54,-210 -90,-269 -84,-34 -212,-48 -304,-55 -138,-10 -140,-273 -331,-211 -58,19 -204,38 -244,66 -44,31 -105,132 -137,183 -34,53 -92,68 -106,134 -13,61 -59,57 -106,41 -76,-25 -85,53 -120,100 -54,71 -181,15 -252,15"
   id="path1003" />

   <path
   class="fil2 str2"
   d="m 11198,19359 c -16,41 120,172 140,210 61,119 84,174 84,307 0,57 41,111 90,138 57,31 82,86 124,134 72,81 122,61 201,-10 134,-119 274,27 410,-4 83,-18 219,-52 285,12 108,106 128,210 78,346 -22,59 -68,102 -68,167 0,28 13,60 19,88 6,26 1,98 5,113 21,77 24,158 36,237"
   id="path1005" />

   <path
   class="fil2 str2"
   d="m 15449,16122 c 0,24 0,48 1,72 2,40 -41,61 -28,87 29,58 -15,37 -30,68 -31,63 -11,95 -7,161 3,47 6,88 -38,112 -117,64 -48,149 -7,250 15,38 22,83 22,128 0,143 -34,292 -34,444 0,61 -18,184 -78,216 -88,47 -118,103 -191,171 -86,80 -213,49 -286,127 -54,58 -105,142 -184,163 -146,39 -280,8 -416,91 -248,152 -113,342 -455,135 -59,-36 -114,-84 -180,-106 -50,-16 -105,-20 -142,-60 -69,-73 -27,-181 -63,-268 -51,-122 14,-129 28,-239"
   id="path1007" />

   <path
   class="fil2 str2"
   d="m 11678,11632 c 25,-59 11,-90 63,-140 45,-42 77,-53 117,-107 54,-75 74,-178 170,-217 62,-25 150,-17 208,13 100,53 201,-7 299,45 34,18 75,66 118,41 57,-33 76,-35 130,-40 41,-3 94,41 145,49 36,6 67,-13 101,-13 66,0 105,37 168,-13 17,-14 33,-36 38,-58 5,-23 28,-48 38,-51 51,-16 85,-68 91,-115 5,-34 77,-90 113,-92 24,-2 42,-25 63,-37"
   id="path1009" />

   <path
   class="fil2 str2"
   d="m 4822,15000 c -9,-34 -16,-69 -28,-102 -20,-59 -31,-118 50,-118 33,0 42,-36 47,-62 6,-32 33,-59 54,-82"
   id="path1011" />

   <path
   class="fil2 str2"
   d="m 4784,15231 c -35,36 -26,71 -19,117 9,61 3,36 -28,83 -14,22 10,160 47,141 75,-38 66,-49 85,30 31,131 238,238 162,394 -8,17 -29,23 -44,33 -21,14 -44,37 -61,56 -12,14 -45,46 -50,65 -5,16 -15,30 -23,45"
   id="path1013" />

   <path
   class="fil2 str2"
   d="m 4934,16711 c 25,63 100,243 -5,270 -63,17 -117,94 -117,161 0,31 90,83 101,133 14,66 -48,50 -90,50 -53,0 -35,30 -57,61 -33,46 -93,47 -126,104 -29,49 -59,97 -86,146 -4,8 -6,17 -9,26"
   id="path1015" />

   <path
   class="fil2 str2"
   d="m 3666,18599 c 63,4 100,-16 163,10 48,19 83,2 130,2 97,0 149,-15 182,-116 13,-38 45,-66 62,-102 21,-44 -9,-63 -10,-101 0,-15 -3,-29 -5,-44"
   id="path1017" />

  </g>

  <polygon
   class="fil3 str3"
   points="1596,1232 4018,1232 4018,2825 1596,2825 "
   id="polygon1020" />

  <path
   class="fil4"
   d="m 1198,2963 c 0,-17 4,-34 13,-51 9,-17 22,-30 38,-39 17,-9 34,-14 52,-14 18,0 35,5 52,14 17,9 29,22 39,38 9,17 14,34 14,52 0,18 -5,35 -14,52 -9,17 -22,29 -39,39 -17,9 -34,14 -52,14 -18,0 -35,-5 -52,-14 -17,-9 -30,-22 -38,-39 -9,-17 -13,-34 -13,-51 z m 17,0 c 0,15 4,29 11,43 7,14 18,25 32,32 14,8 28,12 43,12 15,0 29,-4 43,-12 14,-8 24,-18 32,-32 8,-14 12,-28 12,-43 0,-15 -4,-29 -12,-43 -8,-14 -18,-25 -32,-32 -14,-8 -28,-11 -43,-11 -15,0 -30,4 -43,12 -14,8 -25,19 -32,32 -7,14 -11,28 -11,43 z m 104,-33 5,-17 c 12,3 21,9 28,18 7,9 10,20 10,33 0,16 -5,29 -16,39 -10,10 -25,15 -44,15 -12,0 -23,-2 -32,-7 -9,-5 -16,-11 -20,-20 -5,-9 -7,-18 -7,-29 0,-12 3,-22 9,-30 6,-8 14,-14 24,-17 l 4,16 c -7,3 -12,7 -16,12 -4,5 -6,12 -6,19 0,11 4,19 11,26 8,7 18,10 32,10 14,0 25,-3 32,-10 7,-6 11,-15 11,-25 0,-8 -2,-16 -7,-22 -5,-6 -11,-10 -20,-12 z"
   id="path1022" />

  <path
   id="1"
   class="fil4"
   d="m 1404,2668 h -19 c 14,9 22,23 22,41 0,12 -3,22 -10,32 -6,10 -15,17 -27,23 -12,5 -25,8 -40,8 -15,0 -28,-2 -40,-7 -12,-5 -21,-12 -27,-22 -6,-10 -10,-21 -10,-33 0,-9 2,-17 6,-24 4,-7 9,-12 15,-17 h -73 v -25 h 202 v 23 z m -73,78 c 19,0 33,-4 42,-12 9,-8 14,-17 14,-28 0,-11 -4,-20 -13,-28 -9,-8 -22,-11 -41,-11 -20,0 -35,4 -44,12 -9,8 -14,17 -14,29 0,11 4,20 13,28 9,7 23,11 42,11 z" />

  <polygon
   id="2"
   class="fil4"
   points="1343,2616 1318,2616 1318,2539 1343,2539 " />

  <path
   id="3"
   class="fil4"
   d="m 1404,2512 h -146 v -22 h 21 c -7,-5 -13,-11 -17,-18 -4,-8 -7,-16 -7,-26 0,-11 2,-20 7,-27 5,-7 11,-12 19,-15 -17,-12 -26,-27 -26,-45 0,-15 4,-26 12,-34 8,-8 20,-12 37,-12 h 100 v 25 h -92 c -10,0 -17,1 -21,2 -4,2 -8,5 -11,9 -3,4 -4,9 -4,15 0,10 3,19 10,26 7,7 18,10 33,10 h 85 v 25 h -95 c -11,0 -19,2 -25,6 -6,4 -8,11 -8,20 0,7 2,13 6,19 4,6 9,10 16,13 7,3 17,4 31,4 h 76 v 25 z" />

  <path
   id="4"
   class="fil4"
   d="m 1385,2181 c 8,9 13,18 17,27 3,9 5,18 5,27 0,16 -4,28 -12,37 -8,9 -18,13 -30,13 -7,0 -14,-2 -20,-5 -6,-3 -11,-8 -14,-13 -4,-5 -6,-11 -8,-18 -1,-5 -2,-12 -4,-22 -2,-20 -5,-35 -9,-44 -3,0 -6,0 -6,0 -10,0 -17,2 -21,7 -6,6 -8,16 -8,28 0,12 2,20 6,26 4,6 11,10 22,12 l -3,24 c -10,-2 -19,-6 -25,-11 -6,-5 -11,-12 -15,-22 -3,-10 -5,-21 -5,-33 0,-13 1,-23 4,-31 3,-8 7,-14 11,-17 4,-4 10,-6 17,-8 4,-1 12,-1 23,-1 h 33 c 23,0 38,-1 44,-2 6,-1 12,-3 18,-6 v 26 c -5,3 -11,4 -18,5 z m -55,2 c 4,9 7,23 9,41 1,10 3,17 5,22 2,4 5,7 8,10 4,2 7,3 12,3 7,0 12,-2 16,-8 4,-5 7,-12 7,-22 0,-10 -2,-18 -6,-26 -4,-7 -10,-13 -17,-16 -6,-3 -14,-4 -25,-4 z" />

  <path
   id="5"
   class="fil4"
   d="m 1460,2120 h -203 v -23 h 19 c -7,-5 -13,-11 -17,-18 -4,-7 -6,-15 -6,-24 0,-13 3,-24 10,-33 6,-10 15,-17 27,-22 12,-5 25,-7 38,-7 15,0 28,3 40,8 12,5 21,13 28,23 6,10 10,21 10,32 0,8 -2,16 -5,22 -3,7 -8,12 -13,16 h 71 v 25 z m -129,-23 c 19,0 33,-4 42,-11 9,-8 13,-17 13,-28 0,-11 -5,-20 -14,-28 -9,-8 -24,-12 -43,-12 -19,0 -33,4 -42,11 -9,8 -14,17 -14,27 0,11 5,20 15,28 10,8 24,12 43,12 z" />

  <path
   id="6"
   class="fil4"
   d="m 1360,1973 -4,-25 c 10,-1 17,-5 23,-12 5,-6 8,-15 8,-26 0,-11 -2,-20 -7,-25 -5,-6 -10,-8 -16,-8 -6,0 -10,3 -13,7 -2,3 -5,12 -8,25 -5,18 -9,31 -12,38 -3,7 -8,12 -14,16 -6,4 -12,5 -20,5 -7,0 -13,-2 -18,-4 -6,-3 -10,-7 -14,-12 -3,-4 -5,-9 -7,-16 -2,-7 -3,-14 -3,-21 0,-11 2,-22 5,-30 3,-9 8,-15 13,-19 6,-4 13,-7 23,-9 l 3,24 c -8,1 -14,4 -18,10 -4,5 -6,13 -6,22 0,11 2,19 6,24 4,5 8,7 13,7 3,0 6,-1 9,-3 3,-2 5,-5 7,-10 1,-3 3,-10 6,-22 5,-18 9,-30 11,-37 3,-7 7,-12 13,-16 6,-4 13,-6 21,-6 8,0 16,2 23,7 7,5 13,12 17,21 4,9 6,19 6,31 0,19 -4,34 -12,44 -8,10 -20,16 -35,19 z" />

  <polygon
   id="7"
   class="fil4"
   points="1404,1815 1376,1815 1376,1786 1404,1786 " />

  <path
   id="8"
   class="fil4"
   d="m 1350,1648 3,-24 c 17,3 30,9 39,20 9,11 14,24 14,40 0,20 -7,36 -20,48 -13,12 -32,18 -56,18 -16,0 -30,-3 -41,-8 -12,-5 -21,-13 -27,-24 -6,-11 -9,-22 -9,-35 0,-16 4,-29 12,-39 8,-10 19,-17 34,-19 l 4,24 c -10,2 -17,6 -22,12 -5,6 -7,13 -7,21 0,13 4,23 13,31 9,8 23,12 42,12 20,0 34,-4 43,-11 9,-8 13,-17 13,-29 0,-10 -3,-18 -9,-24 -6,-7 -15,-11 -27,-12 z" />

  <path
   id="9"
   class="fil4"
   d="m 1331,1612 c -27,0 -47,-8 -60,-23 -11,-13 -16,-28 -16,-46 0,-20 7,-37 20,-49 13,-13 31,-19 55,-19 19,0 34,3 44,8 11,6 19,14 25,25 6,11 9,23 9,35 0,21 -7,37 -20,50 -13,13 -32,19 -57,19 z m 0,-25 c 19,0 33,-4 42,-12 9,-8 14,-19 14,-31 0,-12 -5,-23 -14,-31 -9,-8 -24,-12 -43,-12 -18,0 -32,4 -41,12 -9,8 -14,18 -14,31 0,12 5,23 14,31 9,8 23,12 42,12 z" />

  <path
   id="10"
   class="fil4"
   d="m 1404,1445 h -146 v -22 h 21 c -7,-5 -13,-11 -17,-18 -4,-8 -7,-16 -7,-26 0,-11 2,-20 7,-27 5,-7 11,-12 19,-15 -17,-12 -26,-27 -26,-45 0,-15 4,-26 12,-34 8,-8 20,-12 37,-12 h 100 v 25 h -92 c -10,0 -17,1 -21,2 -4,2 -8,5 -11,9 -3,4 -4,9 -4,15 0,10 3,19 10,26 7,7 18,10 33,10 h 85 v 25 h -95 c -11,0 -19,2 -25,6 -6,4 -8,11 -8,20 0,7 2,13 6,19 4,6 9,10 16,13 7,3 17,4 31,4 h 76 v 25 z" />

  <g
   id="_2384980622512">
   <g
   id="g1050">
    <polygon
   class="fil5 str4"
   points="1737,1824 2159,1824 2159,1924 1737,1924 "
   id="polygon1034" />

    <polygon
   class="fil6 str4"
   points="2159,1824 2580,1824 2580,1924 2159,1924 "
   id="polygon1036" />

    <polygon
   class="fil5 str4"
   points="2580,1824 3001,1824 3001,1924 2580,1924 "
   id="polygon1038" />

    <polygon
   class="fil6 str4"
   points="3001,1824 3423,1824 3423,1924 3001,1924 "
   id="polygon1040" />

    <polygon
   class="fil5 str4"
   points="3423,1824 3844,1824 3844,1924 3423,1924 "
   id="polygon1042" />

    <polygon
   class="fil6 str4"
   points="3086,2123 3760,2123 3760,2222 3086,2222 "
   id="polygon1044" />

    <polygon
   class="fil5 str4"
   points="2413,2123 3086,2123 3086,2222 2413,2222 "
   id="polygon1046" />

    <polygon
   class="fil6 str4"
   points="1739,2123 2413,2123 2413,2222 1739,2222 "
   id="polygon1048" />

   </g>

   <path
   class="fil7"
   d="m 2318,1452 57,-28 h 6 v 197 c 0,13 1,21 2,25 1,3 3,6 7,7 3,2 11,3 21,3 v 6 h -88 v -6 c 11,0 18,-1 21,-3 3,-2 5,-4 7,-7 1,-3 2,-11 2,-25 v -126 c 0,-17 -1,-28 -2,-33 -1,-4 -2,-6 -4,-8 -2,-2 -5,-3 -8,-3 -4,0 -10,2 -18,5 l -3,-5 z"
   id="path1052" />

   <path
   id="path1054"
   class="fil7"
   d="m 2952,1417 v 157 l 40,-37 c 9,-8 13,-13 15,-15 1,-1 1,-3 1,-4 0,-2 -1,-4 -3,-6 -2,-2 -5,-3 -9,-3 v -6 h 69 v 6 c -9,0 -17,2 -23,4 -6,3 -13,7 -21,14 l -41,37 40,51 c 11,14 19,23 23,27 6,5 10,9 15,10 3,1 8,2 15,2 v 6 h -77 v -6 c 4,0 7,-1 9,-2 2,-1 2,-3 2,-5 0,-3 -2,-7 -7,-13 l -48,-62 v 52 c 0,10 1,17 2,20 1,3 3,5 6,7 3,1 8,2 17,2 v 6 h -80 v -6 c 8,0 14,-1 18,-3 2,-1 4,-3 5,-6 2,-4 3,-10 3,-20 v -144 c 0,-18 0,-29 -1,-33 -1,-4 -2,-7 -4,-8 -2,-2 -4,-2 -7,-2 -2,0 -6,1 -11,3 l -3,-6 47,-19 h 8 z" />

   <path
   id="path1056"
   class="fil7"
   d="m 3129,1534 c 11,-12 18,-18 20,-20 5,-4 11,-8 17,-10 6,-2 12,-4 18,-4 10,0 18,3 25,9 7,6 12,14 14,25 12,-14 22,-23 30,-27 8,-4 17,-6 25,-6 8,0 16,2 22,6 6,4 12,11 15,21 3,7 4,17 4,31 v 68 c 0,10 1,17 2,20 1,2 3,5 6,6 3,2 8,3 15,3 v 6 h -77 v -6 h 3 c 7,0 12,-1 16,-4 3,-2 5,-5 6,-9 0,-2 1,-7 1,-17 v -68 c 0,-13 -2,-22 -5,-27 -5,-7 -12,-11 -22,-11 -6,0 -12,2 -18,5 -6,3 -14,9 -22,17 v 2 l 1,7 v 75 c 0,11 1,17 2,20 1,3 3,5 7,7 3,2 9,3 17,3 v 6 h -79 v -6 c 9,0 15,-1 18,-3 3,-2 5,-5 7,-9 1,-2 1,-8 1,-17 v -68 c 0,-13 -2,-22 -6,-28 -5,-7 -12,-11 -21,-11 -6,0 -12,2 -18,5 -9,5 -17,11 -22,17 v 85 c 0,10 1,17 2,20 1,3 4,5 6,7 3,2 8,2 17,2 v 6 h -78 v -6 c 7,0 12,-1 15,-2 3,-2 5,-4 7,-7 1,-3 2,-10 2,-20 v -60 c 0,-17 -1,-28 -2,-34 -1,-4 -2,-6 -4,-8 -2,-1 -4,-2 -7,-2 -3,0 -7,1 -12,3 l -3,-6 48,-19 h 7 v 34 z" />

   <path
   id="path1058"
   class="fil7"
   d="m 2466,1547 c 0,-27 4,-50 12,-69 8,-19 19,-34 32,-43 10,-7 21,-11 32,-11 18,0 34,9 48,27 18,23 27,53 27,92 0,27 -4,50 -12,69 -8,19 -18,33 -30,41 -12,9 -24,13 -35,13 -22,0 -41,-13 -56,-39 -13,-22 -19,-49 -19,-80 z m 34,4 c 0,32 4,58 12,79 7,17 16,26 29,26 6,0 13,-3 19,-8 7,-6 12,-15 15,-28 5,-20 8,-48 8,-83 0,-27 -3,-49 -8,-67 -4,-13 -9,-23 -16,-28 -5,-4 -10,-6 -17,-6 -8,0 -15,4 -21,11 -8,10 -14,24 -17,45 -3,20 -4,41 -4,60 z" />

   <path
   id="path1060"
   class="fil7"
   d="m 2642,1547 c 0,-27 4,-50 12,-69 8,-19 19,-34 32,-43 10,-7 21,-11 32,-11 18,0 34,9 48,27 18,23 27,53 27,92 0,27 -4,50 -12,69 -8,19 -18,33 -30,41 -12,9 -24,13 -35,13 -22,0 -41,-13 -56,-39 -13,-22 -19,-49 -19,-80 z m 34,4 c 0,32 4,58 12,79 7,17 16,26 29,26 6,0 13,-3 19,-8 7,-6 12,-15 15,-28 5,-20 8,-48 8,-83 0,-27 -3,-49 -8,-67 -4,-13 -9,-23 -16,-28 -5,-4 -10,-6 -17,-6 -8,0 -15,4 -21,11 -8,10 -14,24 -17,45 -3,20 -4,41 -4,60 z" />

   <path
   class="fil7"
   d="m 2554,2394 v 7 c -15,1 -27,4 -37,9 -10,5 -19,11 -28,21 -9,9 -17,20 -23,31 -6,11 -11,25 -15,41 16,-11 33,-17 50,-17 16,0 30,6 41,19 12,13 18,29 18,50 0,19 -6,37 -18,53 -14,19 -33,29 -56,29 -16,0 -30,-5 -41,-16 -22,-21 -33,-47 -33,-80 0,-21 4,-41 13,-60 8,-19 20,-36 36,-50 16,-15 30,-24 45,-29 14,-5 27,-8 40,-8 h 10 z m -107,120 c -2,16 -3,28 -3,38 0,11 2,23 6,36 4,13 10,23 18,31 6,5 13,8 21,8 10,0 19,-5 27,-14 8,-9 12,-23 12,-40 0,-20 -4,-37 -12,-51 -8,-14 -19,-22 -33,-22 -4,0 -9,1 -14,3 -5,2 -12,6 -22,12 z"
   id="path1062" />

   <path
   id="path1064"
   class="fil7"
   d="m 2585,2517 c 0,-27 4,-50 12,-69 8,-19 19,-34 32,-43 10,-7 21,-11 32,-11 18,0 34,9 48,27 18,23 27,53 27,92 0,27 -4,50 -12,69 -8,19 -18,33 -30,41 -12,9 -24,13 -35,13 -22,0 -41,-13 -56,-39 -13,-22 -19,-49 -19,-80 z m 34,4 c 0,32 4,58 12,79 7,17 16,26 29,26 6,0 13,-3 19,-8 7,-6 12,-15 15,-28 5,-20 8,-48 8,-83 0,-27 -3,-49 -8,-67 -4,-13 -9,-23 -16,-28 -5,-4 -10,-6 -17,-6 -8,0 -15,4 -21,11 -8,10 -14,24 -17,45 -3,20 -4,41 -4,60 z" />

   <path
   id="path1066"
   class="fil7"
   d="m 2895,2503 c 11,-12 18,-18 20,-20 5,-4 11,-8 17,-10 6,-2 12,-4 18,-4 10,0 18,3 25,9 7,6 12,14 14,25 12,-14 22,-23 30,-27 8,-4 17,-6 25,-6 8,0 16,2 22,6 6,4 12,11 15,21 3,7 4,17 4,31 v 68 c 0,10 1,17 2,20 1,2 3,5 6,6 3,2 8,3 15,3 v 6 h -77 v -6 h 3 c 7,0 12,-1 16,-4 3,-2 5,-5 6,-9 0,-2 1,-7 1,-17 v -68 c 0,-13 -2,-22 -5,-27 -5,-7 -12,-11 -22,-11 -6,0 -12,2 -18,5 -6,3 -14,9 -22,17 v 2 l 1,7 v 75 c 0,11 1,17 2,20 1,3 3,5 7,7 3,2 9,3 17,3 v 6 h -79 v -6 c 9,0 15,-1 18,-3 3,-2 5,-5 7,-9 1,-2 1,-8 1,-17 v -68 c 0,-13 -2,-22 -6,-28 -5,-7 -12,-11 -21,-11 -6,0 -12,2 -18,5 -9,5 -17,11 -22,17 v 85 c 0,10 1,17 2,20 1,3 4,5 6,7 3,2 8,2 17,2 v 6 h -78 v -6 c 7,0 12,-1 15,-2 3,-2 5,-4 7,-7 1,-3 2,-10 2,-20 v -60 c 0,-17 -1,-28 -2,-34 -1,-4 -2,-6 -4,-8 -2,-1 -4,-2 -7,-2 -3,0 -7,1 -12,3 l -3,-6 48,-19 h 7 v 34 z" />

   <path
   id="path1068"
   class="fil7"
   d="m 3162,2387 c 5,0 9,2 12,5 3,3 5,8 5,12 0,5 -2,9 -5,12 -3,3 -8,5 -12,5 -5,0 -9,-2 -12,-5 -3,-3 -5,-8 -5,-12 0,-5 2,-9 5,-12 3,-3 8,-5 13,-5 z m 14,83 v 127 c 0,10 1,16 2,20 1,3 4,6 6,7 3,2 8,2 15,2 v 6 h -77 v -6 c 8,0 13,-1 15,-2 3,-1 5,-4 6,-7 2,-3 2,-10 2,-20 v -61 c 0,-17 -1,-28 -2,-33 -1,-4 -2,-6 -4,-8 -2,-1 -4,-2 -7,-2 -3,0 -7,1 -12,3 l -2,-6 47,-19 h 8 z" />

  </g>

  <path
   class="fil2 str5"
   d="M 1000,1000 H 19989 V 25068 H 1000 Z m 15188,2253 1660,1337 h 2142 M 16189,1000 v 2253"
   id="path1071" />

  <g
   id="_2384980621520">
   <polygon
   class="fil3 str3"
   points="4147,1239 4963,1239 4963,2832 4147,2832 "
   id="polygon1073" />

   <path
   class="fil8"
   d="m 4495,1676 c -1,3 -2,6 -2,9 0,3 -1,5 -1,7 0,6 2,10 5,12 3,2 10,3 18,3 h 4 l -5,23 h -78 l 5,-23 h 3 c 7,0 13,-2 16,-5 4,-3 6,-8 8,-16 l 38,-154 c 1,-3 1,-6 2,-8 0,-3 1,-6 1,-9 0,-5 -2,-9 -6,-11 -4,-2 -11,-3 -20,-3 h -3 l 5,-23 h 72 l 62,184 31,-129 c 1,-4 2,-8 2,-10 0,-3 1,-5 1,-6 0,-6 -2,-10 -5,-12 -4,-2 -10,-3 -18,-3 h -4 l 5,-23 h 79 l -6,23 h -3 c -7,0 -13,2 -16,5 -4,3 -6,8 -8,16 l -51,208 h -22 l -72,-209 -37,155 z"
   id="path1075" />

   <line
   class="fil2 str6"
   x1="4556"
   y1="2699"
   x2="4556"
   y2="1930"
   id="line1077" />

   <line
   class="fil2 str6"
   x1="4274"
   y1="2423"
   x2="4837"
   y2="2423"
   id="line1079" />

   <line
   class="fil2 str6"
   x1="4411"
   y1="2563"
   x2="4705"
   y2="2276"
   id="line1081" />

   <line
   class="fil2 str6"
   x1="4408"
   y1="2276"
   x2="4706"
   y2="2565"
   id="line1083" />

   <line
   class="fil2 str6"
   x1="4556"
   y1="1933"
   x2="4461"
   y2="2051"
   id="line1085" />

   <line
   class="fil2 str6"
   x1="4557"
   y1="1933"
   x2="4645"
   y2="2051"
   id="line1087" />

  </g>

  <g
   id="_2384980619376">
   <polygon
   class="fil3 str3"
   points="8033,1239 8033,1713 5724,1713 5724,1239 "
   id="polygon1090" />

   <path
   class="fil8"
   d="m 6801,1578 v -202 h 40 l 48,143 c 4,13 8,23 10,30 2,-7 6,-18 11,-32 l 49,-141 h 36 v 202 h -26 v -169 l -59,169 h -24 l -58,-172 v 172 h -26 z"
   id="path1092" />

   <path
   id="path1094"
   class="fil8"
   d="m 7134,1531 26,3 c -4,15 -11,27 -22,35 -11,8 -25,12 -42,12 -21,0 -38,-7 -51,-20 -13,-13 -19,-32 -19,-55 0,-25 6,-44 19,-57 13,-14 29,-20 49,-20 20,0 35,7 48,20 12,13 19,32 19,56 0,1 0,4 0,7 h -109 c 1,16 5,28 14,37 8,9 18,13 31,13 9,0 17,-2 23,-7 6,-5 12,-12 15,-23 z m -81,-40 h 82 c -1,-12 -4,-22 -9,-28 -8,-10 -18,-14 -31,-14 -11,0 -21,4 -29,11 -8,8 -12,18 -13,31 z" />

   <path
   id="path1096"
   class="fil8"
   d="m 7191,1578 v -146 h 22 v 22 c 6,-10 11,-17 16,-21 5,-3 10,-5 16,-5 8,0 17,3 26,8 l -9,23 c -6,-3 -12,-5 -18,-5 -5,0 -10,2 -15,5 -4,3 -7,8 -9,14 -3,9 -4,18 -4,29 v 77 h -25 z" />

   <path
   id="path1098"
   class="fil8"
   d="m 7381,1524 24,3 c -3,17 -9,30 -20,39 -11,9 -24,14 -40,14 -20,0 -36,-7 -48,-20 -12,-13 -18,-32 -18,-56 0,-16 3,-30 8,-41 5,-12 13,-21 24,-27 11,-6 22,-9 35,-9 16,0 29,4 39,12 10,8 17,19 19,34 l -24,4 c -2,-10 -6,-17 -12,-22 -6,-5 -13,-7 -21,-7 -13,0 -23,4 -31,13 -8,9 -12,23 -12,42 0,20 4,34 11,43 8,9 17,13 29,13 10,0 18,-3 24,-9 7,-6 11,-15 12,-27 z" />

   <path
   id="path1100"
   class="fil8"
   d="m 7522,1560 c -9,8 -18,13 -27,17 -9,3 -18,5 -27,5 -16,0 -28,-4 -37,-12 -9,-8 -13,-18 -13,-30 0,-7 2,-14 5,-20 3,-6 8,-11 13,-14 5,-4 11,-6 18,-8 5,-1 12,-2 22,-4 20,-2 35,-5 44,-9 0,-3 0,-6 0,-6 0,-10 -2,-17 -7,-21 -6,-6 -16,-8 -28,-8 -12,0 -20,2 -26,6 -6,4 -10,11 -12,22 l -24,-3 c 2,-10 6,-19 11,-25 5,-6 12,-11 22,-15 10,-3 21,-5 33,-5 13,0 23,1 31,4 8,3 14,7 17,11 4,4 6,10 8,17 1,4 1,12 1,23 v 33 c 0,23 1,38 2,44 1,6 3,12 6,18 h -26 c -3,-5 -4,-11 -5,-18 z m -2,-55 c -9,4 -23,7 -41,9 -10,1 -17,3 -22,5 -4,2 -7,5 -10,8 -2,4 -3,7 -3,12 0,7 2,12 8,16 5,4 12,7 22,7 10,0 18,-2 26,-6 7,-4 13,-10 16,-17 3,-6 4,-14 4,-25 z" />

   <path
   id="path1102"
   class="fil8"
   d="m 7637,1556 3,22 c -7,1 -13,2 -19,2 -9,0 -16,-1 -21,-4 -5,-3 -8,-7 -10,-11 -2,-5 -3,-14 -3,-29 v -84 h -18 v -19 h 18 v -36 l 25,-15 v 51 h 25 v 19 h -25 v 86 c 0,7 0,12 1,14 1,2 2,4 4,5 2,1 5,2 8,2 3,0 6,0 11,-1 z" />

   <path
   id="path1104"
   class="fil8"
   d="m 7652,1505 c 0,-27 8,-47 23,-60 13,-11 28,-16 46,-16 20,0 37,7 49,20 13,13 19,31 19,55 0,19 -3,34 -8,44 -6,11 -14,19 -25,25 -11,6 -23,9 -35,9 -21,0 -37,-7 -50,-20 -13,-13 -19,-32 -19,-57 z m 25,0 c 0,19 4,33 12,42 8,9 19,14 31,14 12,0 23,-5 31,-14 8,-9 12,-24 12,-43 0,-18 -4,-32 -12,-41 -8,-9 -18,-14 -31,-14 -12,0 -23,5 -31,14 -8,9 -12,23 -12,42 z" />

   <path
   id="path1106"
   class="fil8"
   d="m 7818,1578 v -146 h 22 v 22 c 6,-10 11,-17 16,-21 5,-3 10,-5 16,-5 8,0 17,3 26,8 l -9,23 c -6,-3 -12,-5 -18,-5 -5,0 -10,2 -15,5 -4,3 -7,8 -9,14 -3,9 -4,18 -4,29 v 77 h -25 z" />

   <circle
   class="fil9 str7"
   cx="5942"
   cy="1473"
   r="119"
   id="circle1108" />

   <rect
   class="fil9 str7"
   x="6400"
   y="1364"
   width="227"
   height="227"
   id="rect1110" />

   <line
   class="fil2 str8"
   x1="6116"
   y1="1472"
   x2="6337"
   y2="1472"
   id="line1112" />

   <line
   class="fil2 str8"
   x1="6334"
   y1="1472"
   x2="6270"
   y2="1538"
   id="line1114" />

   <line
   class="fil2 str8"
   x1="6334"
   y1="1471"
   x2="6271"
   y2="1410"
   id="line1116" />

  </g>

 </g>
    </g>
    <text
       xml:space="preserve"
       transform="matrix(0.26458333,0,0,0.26458333,7.1763641,14.686059)"
       id="text3398"
       style="font-style:normal;font-weight:normal;font-size:40px;line-height:1.25;font-family:sans-serif;white-space:pre;shape-inside:url(#rect3400);fill:#000000;fill-opacity:1;stroke:none"><tspan
         x="6.9160156"
         y="118.99023"
         id="tspan69132">d</tspan></text>
    <rect
       style="fill:#ffffff;stroke-width:2.022"
       id="rect4628"
       width="3.780247"
       height="20.254654"
       x="8.5842371"
       y="16.319181" />
    <rect
       style="fill:#ffffff;stroke-width:3.00079"
       id="rect4974"
       width="29.501995"
       height="8.1707296"
       x="52.17437"
       y="16.22533" />
  </g>
  <g
     inkscape:groupmode="layer"
     id="layer2"
     inkscape:label="Layer 2">
    <text
       xml:space="preserve"
       style="font-style:normal;font-variant:normal;font-weight:normal;font-stretch:normal;font-size:2.82222px;line-height:1.25;font-family:'DejaVu Serif';-inkscape-font-specification:'DejaVu Serif';fill:#000000;fill-opacity:1;stroke:none;stroke-width:0.264583"
       x="118.29996"
       y="237.77699"
       id="text6764"><tspan
         sodipodi:role="line"
         id="tspan6762"
         style="font-style:normal;font-variant:normal;font-weight:normal;font-stretch:normal;font-size:2.82222px;font-family:'DejaVu Serif';-inkscape-font-specification:'DejaVu Serif';stroke-width:0.264583"
         x="118.29996"
         y="237.77699">Tithica Vallis (English Channel)</tspan></text>
    <text
       xml:space="preserve"
       style="font-style:normal;font-variant:normal;font-weight:normal;font-stretch:normal;font-size:2.82223px;line-height:1.25;font-family:'DejaVu Serif';-inkscape-font-specification:'DejaVu Serif';stroke-width:0.264583"
       x="137.95216"
       y="200.89305"
       id="text13777"><tspan
         sodipodi:role="line"
         id="tspan13775"
         style="font-style:normal;font-variant:normal;font-weight:normal;font-stretch:normal;font-family:'DejaVu Serif';-inkscape-font-specification:'DejaVu Serif';stroke-width:0.264583"
         x="137.95216"
         y="200.89305">Tamesis (Thames)</tspan></text>
    <text
       xml:space="preserve"
       style="font-style:normal;font-variant:normal;font-weight:normal;font-stretch:normal;font-size:2.82223px;line-height:1.25;font-family:'DejaVu Serif';-inkscape-font-specification:'DejaVu Serif';stroke-width:0.264583"
       x="122.89012"
       y="186.46161"
       id="text19815"><tspan
         sodipodi:role="line"
         id="tspan19813"
         style="font-style:normal;font-variant:normal;font-weight:normal;font-stretch:normal;font-family:'DejaVu Serif';-inkscape-font-specification:'DejaVu Serif';stroke-width:0.264583"
         x="122.89012"
         y="186.46161">Sabrna (Severn)</tspan></text>
    <text
       xml:space="preserve"
       style="font-style:normal;font-variant:normal;font-weight:normal;font-stretch:normal;font-size:7.42753px;line-height:1.25;font-family:'DejaVu Serif';-inkscape-font-specification:'DejaVu Serif';stroke-width:0.696328"
       x="26.876036"
       y="158.5502"
       id="text20276"><tspan
         sodipodi:role="line"
         id="tspan20274"
         style="font-style:normal;font-variant:normal;font-weight:normal;font-stretch:normal;font-family:'DejaVu Serif';-inkscape-font-specification:'DejaVu Serif';stroke-width:0.696328"
         x="26.876036"
         y="158.5502">Hibernia</tspan><tspan
         sodipodi:role="line"
         style="font-style:normal;font-variant:normal;font-weight:normal;font-stretch:normal;font-family:'DejaVu Serif';-inkscape-font-specification:'DejaVu Serif';stroke-width:0.696328"
         x="26.876036"
         y="167.83461"
         id="tspan68707">(Ireland)</tspan></text>
    <text
       xml:space="preserve"
       style="font-style:normal;font-variant:normal;font-weight:normal;font-stretch:normal;font-size:2.82223px;line-height:1.25;font-family:'DejaVu Serif';-inkscape-font-specification:'DejaVu Serif';stroke-width:0.264583"
       x="153.04958"
       y="211.23891"
       id="text25423"><tspan
         sodipodi:role="line"
         id="tspan25421"
         style="font-style:normal;font-variant:normal;font-weight:normal;font-stretch:normal;font-family:'DejaVu Serif';-inkscape-font-specification:'DejaVu Serif';stroke-width:0.264583"
         x="153.04958"
         y="211.23891">Chent (Kent)</tspan></text>
    <text
       xml:space="preserve"
       style="font-style:normal;font-variant:normal;font-weight:normal;font-stretch:normal;font-size:2.82223px;line-height:1.25;font-family:'DejaVu Serif';-inkscape-font-specification:'DejaVu Serif';stroke-width:0.264583"
       x="98.050858"
       y="189.2953"
       id="text28894"><tspan
         sodipodi:role="line"
         id="tspan28892"
         style="font-style:normal;font-variant:normal;font-weight:normal;font-stretch:normal;font-family:'DejaVu Serif';-inkscape-font-specification:'DejaVu Serif';stroke-width:0.264583"
         x="98.050858"
         y="189.2953">Wye (Guoy)</tspan></text>
    <text
       xml:space="preserve"
       style="font-style:normal;font-variant:normal;font-weight:normal;font-stretch:normal;font-size:2.82223px;line-height:1.25;font-family:'DejaVu Serif';-inkscape-font-specification:'DejaVu Serif';stroke-width:0.264583"
       x="190.76802"
       y="18.602793"
       id="text32102"
       transform="rotate(55.392514)"><tspan
         sodipodi:role="line"
         id="tspan32100"
         style="font-style:normal;font-variant:normal;font-weight:normal;font-stretch:normal;font-family:'DejaVu Serif';-inkscape-font-specification:'DejaVu Serif';stroke-width:0.264583"
         x="190.76802"
         y="18.602793">Gwynedd</tspan></text>
    <text
       xml:space="preserve"
       style="font-style:normal;font-variant:normal;font-weight:normal;font-stretch:normal;font-size:2.82223px;line-height:1.25;font-family:'DejaVu Serif';-inkscape-font-specification:'DejaVu Serif';stroke-width:0.264583"
       x="138.07578"
       y="216.95793"
       id="text43472"><tspan
         sodipodi:role="line"
         id="tspan43470"
         style="font-style:normal;font-variant:normal;font-weight:normal;font-stretch:normal;font-family:'DejaVu Serif';-inkscape-font-specification:'DejaVu Serif';stroke-width:0.264583"
         x="138.07578"
         y="216.95793">Sutsaxum (Sussex)</tspan></text>
    <text
       xml:space="preserve"
       style="font-style:normal;font-variant:normal;font-weight:normal;font-stretch:normal;font-size:2.82223px;line-height:1.25;font-family:'DejaVu Serif';-inkscape-font-specification:'DejaVu Serif';stroke-width:0.264583"
       x="145.56363"
       y="194.02904"
       id="text46026"><tspan
         sodipodi:role="line"
         id="tspan46024"
         style="font-style:normal;font-variant:normal;font-weight:normal;font-stretch:normal;font-family:'DejaVu Serif';-inkscape-font-specification:'DejaVu Serif';stroke-width:0.264583"
         x="145.56363"
         y="194.02904">Estsaxum (Essex)</tspan></text>
    <path
       style="fill:none;stroke:#000000;stroke-width:0.065;stroke-linecap:butt;stroke-linejoin:miter;stroke-miterlimit:4;stroke-dasharray:none;stroke-opacity:1"
       d="m 171.96003,207.10828 c 0.003,0.0746 -0.0356,0.16037 -0.0171,0.23506 0.003,0.0133 0.0207,0.033 0.0256,0.0429 0.007,0.0133 0.023,0.0638 0.0344,0.0774 0.007,0.008 0.0179,0.0106 0.0258,0.0172 0.0279,0.0233 0.0495,0.0541 0.0774,0.0774 0.0613,0.0511 0.13704,0.0991 0.20643,0.13763 0.0485,0.0269 0.17686,0.0763 0.20643,0.11182 0.0396,0.0475 0.0302,0.10811 0.043,0.16342 0.0122,0.053 0.0208,0.0533 0.043,0.10322 0.0304,0.0684 0.0189,0.14379 0.0946,0.18923 0.0963,0.0578 0.22027,0.0814 0.32685,0.11181 0.0257,0.007 0.0512,0.0206 0.0774,0.0258 0.0677,0.0135 0.13898,0.016 0.20643,0.0344 0.007,0.002 0.0851,0.0276 0.0946,0.0344 0.008,0.006 0.009,0.0192 0.0172,0.0258 0.0287,0.0239 0.12556,0.0395 0.13762,0.043 0.0148,0.004 0.0279,0.0138 0.043,0.0172 0.0184,0.004 0.0964,0.007 0.11182,0 0.0318,-0.0147 0.0517,-0.0533 0.086,-0.0602 0.0365,-0.007 0.0744,0 0.11159,0 0.0401,0 0.0805,-0.004 0.12042,0 0.0767,0.007 0.14634,0.0313 0.22364,0.0258 0.0224,-0.002 0.0942,-0.0101 0.12042,-0.0258 0.006,-0.003 0.004,-0.0127 0.009,-0.0172 0.005,-0.005 0.0127,-0.004 0.0172,-0.009 0.0685,-0.0685 0.0538,-0.10322 0.16099,-0.10322"
       id="path47671" />
    <text
       xml:space="preserve"
       style="font-style:normal;font-variant:normal;font-weight:normal;font-stretch:normal;font-size:2.82223px;line-height:1.25;font-family:'DejaVu Serif';-inkscape-font-specification:'DejaVu Serif';stroke-width:0.264583"
       x="168.71292"
       y="204.46962"
       id="text49877"><tspan
         sodipodi:role="line"
         id="tspan49875"
         style="font-style:normal;font-variant:normal;font-weight:normal;font-stretch:normal;font-family:'DejaVu Serif';-inkscape-font-specification:'DejaVu Serif';stroke-width:0.264583"
         x="168.71292"
         y="204.46962">Tanet (Thanet)</tspan></text>
    <path
       style="fill:none;stroke:#000000;stroke-width:0.065;stroke-linecap:butt;stroke-linejoin:miter;stroke-miterlimit:4;stroke-dasharray:none;stroke-opacity:1;marker-end:url(#Arrow1Lend)"
       d="m 181.61735,205.3743 c 0,0 -2.21376,3.03494 -7.50729,2.27527"
       id="path55950" />
    <text
       xml:space="preserve"
       style="font-style:normal;font-variant:normal;font-weight:normal;font-stretch:normal;font-size:2.82223px;line-height:1.25;font-family:'DejaVu Serif';-inkscape-font-specification:'DejaVu Serif';stroke-width:0.264583"
       x="79.56102"
       y="145.00317"
       id="text57159"><tspan
         sodipodi:role="line"
         id="tspan57157"
         style="font-style:normal;font-variant:normal;font-weight:normal;font-stretch:normal;font-family:'DejaVu Serif';-inkscape-font-specification:'DejaVu Serif';stroke-width:0.264583"
         x="79.56102"
         y="145.00317">Eubonia</tspan><tspan
         sodipodi:role="line"
         style="font-style:normal;font-variant:normal;font-weight:normal;font-stretch:normal;font-family:'DejaVu Serif';-inkscape-font-specification:'DejaVu Serif';stroke-width:0.264583"
         x="79.56102"
         y="148.53096"
         id="tspan57161">(Isle of Man)</tspan></text>
    <text
       xml:space="preserve"
       style="font-style:normal;font-variant:normal;font-weight:normal;font-stretch:normal;font-size:2.82223px;line-height:1.25;font-family:'DejaVu Serif';-inkscape-font-specification:'DejaVu Serif';stroke-width:0.264583"
       x="126.85024"
       y="228.04189"
       id="text62033"><tspan
         sodipodi:role="line"
         id="tspan62031"
         style="font-style:normal;font-variant:normal;font-weight:normal;font-stretch:normal;font-family:'DejaVu Serif';-inkscape-font-specification:'DejaVu Serif';stroke-width:0.264583"
         x="126.85024"
         y="228.04189">Gueith (Isle of Wight)</tspan></text>
  </g>
</svg>
